<?xml version="1.0" encoding="utf-8"?>

<!DOCTYPE svg PUBLIC "-//W3C//DTD SVG 1.1//EN" "http://www.w3.org/Graphics/SVG/1.1/DTD/svg11.dtd">
<svg version="1.1" id="Layer_1" xmlns="http://www.w3.org/2000/svg" xmlns:xlink="http://www.w3.org/1999/xlink" x="0px" y="0px"
	 viewBox="0 0 1920 1920" enable-background="new 0 0 1920 1920" xml:space="preserve">
<g>
	<path fill="#416877" d="M628.355,99.4929c3.43-0.96,7.27-2.04,10.74-0.68c5.08,7.4,9.07,15.52,13.75,23.2
		c14.14,24.49,28.26,49,42.44,73.47c-17.84-3.65-36.0099-6.19-54.2599-5.93c-7.72-0.45-15.29,1.41-23,1.23
		c3.34-0.53,6.7-0.85,10.08-1.14c-10.89-19.28-22.1-38.39-33.15-57.58c-1.25-2.41-3.6-4.85-2.66-7.79
		c2.04-4.61,6.14-7.84,9.93-10.98C610.115,107.3529,618.885,102.4128,628.355,99.4929z"/>
	<path fill="#416877" d="M1280.875,98.8529c4.74-1.76,9.84,0.37,14.39,1.85c10.62,4.19,20.79,10.09,28.83,18.3
		c2.16,2.4,5.14,5.8,3.15,9.17c-11.75,20.51-23.71,40.89-35.36,61.44c3.67,0.36,7.35,0.72,11.01,1.26
		c-7.01,0.08-13.91-1.36-20.9-1.34c-19.23-0.15-38.52,1.79-57.3,5.97c16.01-27.61,31.9501-55.28,47.92-82.92
		C1275.415,108.0429,1277.655,103.1228,1280.875,98.8529z"/>
	<path fill="#2C2E35" d="M618.025,190.7828c7.71,0.18,15.28-1.68,23-1.23c18.25-0.26,36.42,2.28,54.2599,5.93
		c7.32,12.74,14.66,25.46,22.04,38.17c8.97,15.67,18.11,31.24,26.99,46.96c-36.33-7.78-74.76-8.78-110.62,1.88
		c-0.59-0.2-1.76-0.59-2.34-0.79c-15.74-28.12-32.28-55.78-48.14-83.83l-0.11-0.19
		C594.525,194.4328,606.195,191.8928,618.025,190.7828z"/>
	<path fill="#2C2F35" d="M1224.6949,195.5028c18.78-4.18,38.0701-6.12,57.3-5.97c6.99-0.02,13.89,1.42,20.9,1.34
		c11.53,1.18,22.9399,3.57,34.0399,6.89c-14.9099,25.79-29.7999,51.59-44.6899,77.39c-1.4399,2.34-2.49,4.97-4.37,7
		c-2.1801,0.49-4.28-0.54-6.35-0.98c-34.5601-9.29-71.2001-7.96-105.98-0.54c9.1699-15.71,18.1699-31.52,27.2999-47.25
		C1210.135,220.7528,1217.425,208.1328,1224.6949,195.5028z"/>
	<path fill="#FECF67" d="M909.985,194.6228c6.04-0.09,12.09-0.23,18.11-0.86c20.31-0.49,40.62-0.38,60.9301-0.1
		c11.67,0.58,23.3,1.49,34.96,2.23c27.48,2.84,55.04,5.75,82.0701,11.69c32.86,6.18,65.09,15.27,96.7899,25.8
		c-9.13,15.73-18.13,31.54-27.2999,47.25c-5.88,9.42-11.4801,19.05-16.8101,28.79c-3.17,8.7-9.66,15.54-13.62,23.82
		c-5.3099,11.33-12.6899,21.48-18.8199,32.35c-13.7301,24.65-28.17,48.92-42.16,73.43c-2.03,3.78-4.76,7.25-6,11.41
		c-3.01,3.2-4.41,7.46-6.59,11.19c-2.03,3.78-5.1901,6.84-6.9801,10.77c-3.11,6.67-7.85,12.42-10.95,19.09
		c-4.0699,8.64-9.87,16.29-14.42,24.66c-3.71,6.19-6.8999,12.68-10.49,18.94c-16.4399,28.27-32.71,56.65-49.1,84.95
		c-6.25,10.64-12.25,21.43-18.56,32.03c-0.29,1.23-2.09,0.73-2.36-0.22c-5.78-10.1-11.57-20.21-17.44-30.2599
		c-13.73-23.8701-27.53-47.71-41.28-71.56c-2.71-4.78-5.67-9.4301-8.03-14.39c-6.5-11.92-13.62-23.5-20.37-35.26
		c-2.13-3.57-3.65-7.5-6.23-10.78c-5.92-6.98-8.92-15.77-13.41-23.62c-3.31-5.19-6.34-10.62-10.06-15.52
		c-1.24-4.18-3.99-7.66-6.01-11.46c-14.02-24.49-28.42-48.76-42.17-73.39c-5.32-8.88-10.51-17.83-15.39-26.95
		c-5.98-9.85-12.22-19.57-17.3-29.92c-5.9-9.17-10.57-19.07-16.68-28.12c-8.88-15.72-18.02-31.29-26.99-46.96
		c19.47-7.27,39.59-12.69,59.7-17.91c32.58-8.11,65.66-14.26,99.05-17.84C887.395,197.0028,898.665,195.4529,909.985,194.6228z"/>
	<path fill="#FBE1BA" d="M498.235,246.6928c24.55-21.81,53.2-39.82,84.9799-48.82c15.86,28.05,32.4,55.71,48.14,83.83
		c0.58,0.2,1.75,0.59,2.34,0.79c35.86-10.66,74.29-9.66,110.62-1.88c6.11,9.05,10.78,18.95,16.68,28.12
		c5.08,10.35,11.32,20.07,17.3,29.92c4.88,9.12,10.07,18.07,15.39,26.95c-36.85-8.47-76.03-8.8-112.46,1.95
		c-15.26-26.96-31-53.64-46.34-80.55c-0.92-1.79-2.36-3.2-3.95-4.38c-9.12,3.73-18.6,6.63-27.43,11.09
		c-16.78,7.98-32.39,18.28-46.82,29.96c-2.89,2.36-5.63,4.93-8.8,6.93c0.02,0.99,0.05,1.99,0.1,2.98
		c7.11,11.22,13.33,22.99,20.12,34.41c9.32,16.28,18.87,32.42,28.06,48.77c-15.04,13.11-28.6,27.8-41.53,42.95
		c-9.46,10.89-17.94,22.59-27.15,33.66c-16.0099-27.77-32.0399-55.53-48.09-83.27c-0.33-0.07-1-0.22-1.33-0.29l-0.57,0.37
		c-21.19,27.93-40.91,57.01-62.23,84.87c-16.3-27.79-32.02-55.94-48.52-83.59c-0.22-0.19-0.65-0.56-0.87-0.75l-0.24-0.2
		c8.2-9.51,14.9-20.25,22.7-30.1c9.71-13.91,19.69-27.63,29.76-41.28c3.94-4.83,6.93-10.44,11.57-14.68
		c16.3,27.82,32.07,55.99,48.55,83.69c2.22-0.43,3.05-2.94,4.47-4.44c19.55-25.3,40.05-50.16,64.19-71.25
		c0-0.49,0.01-1.46,0.01-1.95C530.395,302.7328,514.635,274.5229,498.235,246.6928z"/>
	<path fill="#FBE2BA" d="M1336.9349,197.7628c31.6101,9.38,60.3401,27.04,84.79,48.96c-11,18.69-21.71,37.56-32.6,56.31
		c-5.5699,9.27-10.49,18.95-16.5,27.93c4.55,5.86,10.66,10.23,15.67,15.68c18.5599,18.64,35.2799,39.01,51.1799,59.93
		c0.52,0.86,1.28,1.39,2.28,1.57c15.6799-26.23,30.5699-52.96,46.0599-79.32c1-1.69,1.87-3.46,2.55-5.3
		c17.1,22.98,33.79,46.27,50.61,69.46c4.53,5.71,8.16,12.16,13.3,17.37l-0.24,0.28c-2.2001,2.39-3.64,5.33-5.2201,8.13
		c-11.48,19.88-22.9299,39.77-34.4299,59.63c-3.3101,5.52-6.23,11.28-9.83,16.63c-18.13-24.16-35.4801-48.9-53.3701-73.23
		c-3.21-3.89-5.6799-8.49-9.2699-11.97c-0.3401,0.08-1.01,0.23-1.3501,0.31c-11.5199,19.95-23.0399,39.92-34.59,59.87
		c-4.47,7.43-8.39,15.22-13.27,22.4c0.1001,3.39,2.7201,5.67,4.6001,8.21c12.98,17.44,25.62,35.12,38.34,52.74
		c6.72,9,13.01,18.33,20.1899,26.97c16.3101-28.21,32.4401-56.54,48.9601-84.63c20.76,27.25,42.59,53.99,68.4299,76.65
		c-15.84,28.44-32.72,56.35-48.58,84.75c0.38,1.5,1.9,2.2401,2.95,3.27c23.8101,20.37,51.16,37.3,81.4401,46
		c-8.8,16.2-18.39,31.97-27.4701,48.01c-7.1699,12.3-14.12,24.72-21.4199,36.93c-31.63-9.41-60.1-27.29-84.74-48.98
		c16.4299-28.07,32.6799-56.31,48.7999-84.52c-0.38-1.48-1.8099-2.23-2.77-3.24c-24.73-22.2-45.59-48.22-65.9099-74.39
		c-16.11,28.38-32.5801,56.56-48.88,84.83c-21.6-28.34-41.54-57.91-63.23-86.19c15.01-25.82,29.86-51.74,44.8099-77.6
		c1.5701-2.72,3.51-5.32,4.13-8.46c-2.86-2.23-4.6899-5.39-6.92-8.17c-18.75-24.11-38.58-47.6-61.5699-67.79
		c14.4-25.49,29.25-50.72,43.79-76.14c1.73-3.23,4.2899-6.19,4.6599-9.98c-5.25-3.31-9.5699-7.84-14.62-11.42
		c-17.23-13.29-36.22-24.43-56.61-32.1c-4.2899-1.37-8.4299-3.47-12.9099-4.05c-1.8,1.32-2.77,3.38-3.8501,5.26
		c-15.1,26.44-30.5599,52.67-45.5399,79.18c-36.4401-10.74-75.62-10.39-112.49-1.95c6.13-10.87,13.51-21.02,18.8199-32.35
		c3.96-8.28,10.45-15.12,13.62-23.82c5.33-9.74,10.9301-19.37,16.8101-28.79c34.7799-7.42,71.4199-8.75,105.98,0.54
		c2.0699,0.44,4.1699,1.47,6.35,0.98c1.88-2.03,2.9301-4.66,4.37-7C1307.135,249.3528,1322.025,223.5528,1336.9349,197.7628z"/>
	<path fill="#2C2F36" d="M430.855,321.9529c20.49-26.73,42.06-52.9,67.38-75.26c16.4,27.83,32.16,56.04,48.65,83.81
		c0,0.49-0.01,1.46-0.01,1.95c-24.14,21.09-44.64,45.95-64.19,71.25c-1.42,1.5-2.25,4.01-4.47,4.44
		c-16.48-27.7-32.25-55.87-48.55-83.69C429.315,323.4729,430.475,322.7328,430.855,321.9529z"/>
	<path fill="#2C2F36" d="M1389.125,303.0329c10.89-18.75,21.6-37.62,32.6-56.31c25.92,22.69,47.6901,49.58,68.64,76.8
		c-0.6801,1.84-1.55,3.61-2.55,5.3c-15.49,26.36-30.38,53.09-46.0599,79.32c-1-0.18-1.76-0.71-2.28-1.57
		c-15.9-20.92-32.62-41.29-51.1799-59.93c-5.01-5.45-11.12-9.82-15.67-15.68
		C1378.635,321.9828,1383.5551,312.3029,1389.125,303.0329z"/>
	<path fill="#2C2F36" d="M630.935,282.6229c1.59,1.18,3.03,2.59,3.95,4.38c15.34,26.91,31.08,53.59,46.34,80.55
		c36.43-10.75,75.61-10.42,112.46-1.95c13.75,24.63,28.15,48.9,42.17,73.39c2.02,3.8,4.77,7.28,6.01,11.46
		c-36.2-7.84-74.53-8.66-110.27,1.95c-0.52-0.16-1.5699-0.47-2.09-0.63c-15.67-28.13-32.24-55.77-48.09-83.8
		c-31.82,8.86-60.36,27.09-84.95,48.82c16.41,28.11,32.5601,56.36,48.85,84.52c19.52-16.62,40.77-31.59,64.57-41.45
		c6.12-2.83,12.67-4.53,18.85-7.22c1.58,0.89,3.13,1.94,3.91,3.67c15.52,27.11,31.25,54.1,46.8,81.19
		c22.45-6.82,46.14-9.15,69.53-7.97c14.43,0.95,28.95,2.38,42.96,6.1c2.36,4.96,5.32,9.61,8.03,14.39
		c13.75,23.85,27.55,47.6899,41.28,71.56c-5.66-3.14-12.32-3.23-18.53-4.33c-16.15-2.57-32.54-3.29-48.85-2.5
		c-15.44,0.77-30.74,3.54-45.57,7.87c-14.8-25.82-29.71-51.57-44.58-77.35c-1.4399-2.47-2.66-5.09-4.53-7.27
		c-31.04,8.55-58.88,26.3-83.04,47.25c-1.92,1.02-0.56,3.07,0.16,4.42c15.86,27.22,31.4,54.63,47.35,81.81
		c-25.8799,22.99-47.97,49.8-68.93,77.25c-16.47-28.18-32.61-56.55-49.03-84.75c-20.99,27.68-40.68,56.32-61.54,84.1
		c-0.48,0.77-1.12,1.3199-1.91,1.67c-5.79-9.02-10.77-18.55-16.26-27.76c-10.82-18.77-21.69-37.52-32.48-56.3
		c-7.32,8.67-13.92,17.93-21.25,26.6c-14.63,17.71-30.12,34.8-47.39,49.98c14.45,25.72,29.5,51.1,44.13,76.73
		c1.39,2.65,3.43,5.03,4.18,7.98c-0.13,0.35-0.39,1.05-0.52,1.4c-22.33,19.45-47.73,35.84-75.87,45.46
		c-2.52,0.72-4.95,2.11-7.62,2.05c-1.47-0.92-2.31-2.47-3.14-3.92c-15.28-26.87-31.14-53.43-46.18-80.44
		c-19.73,5.72-40.3,8.47-60.84,8.12c-17.22-0.08-34.33-2.5-51.22-5.77c-5.29-8.97-10.4-18.05-15.69-27.03
		c-11.08-19.23-22.06-38.52-33.36-57.61c2.44-0.13,4.86,0.21,7.24,0.75c34.4,6.63,70.51,6.54,104.25-3.5
		c-6.03-11.65-13.06-22.77-19.47-34.22c-9.85-16.83-19.31-33.89-29.38-50.58c-35.79,10.78-74.12,9.95-110.48,2.54
		c-1.12,0-1.71-0.99-2.2-1.84c-16.01-27.84-32.09-55.65-48.15-83.47c14.04,2.47,28.14,4.85,42.42,5.48
		c22.89,1.19,46.06-1.04,68.08-7.54c0.42-0.04,1.28-0.13,1.7-0.18c16.33,28.26,32.65,56.54,48.94,84.82
		c29.92-9.14,57.37-25.37,80.92-45.84c1.23-1.11,2.56-2.12,4.11-2.74c7.01,11.26,13.31,22.96,20.05,34.39
		c9.57,16.61,19.22,33.17,28.74,49.82c23.76-20.53,43.9-44.84,63.13-69.57c1.96-2.24,3.21-5.33,5.99-6.69
		c16.45,27.92,32.43,56.13,48.74,84.13c21-27.67,40.63-56.34,61.52-84.08c0.47-0.75,1.09-1.32,1.85-1.73
		c6.73,10.45,12.51,21.52,18.88,32.21c9.98,17.29,20,34.56,29.96,51.8701c8-9.61,15.35-19.76,23.46-29.29
		c14-16.73,28.75-32.94,45.23-47.28c-16.21-28.35-32.49-56.67-49.03-84.82c-23.2,20.7-43.43,44.45-62.41,69
		c-1.91,2.42-3.53,5.13-6.01,7.02c-0.23-0.0699-0.68-0.2-0.91-0.27c-16.22-27.79-32.1-55.8-48.35-83.58
		c-21.34,28.29-41.3,57.59-62.84,85.71c-1.36,0.1-1.61-1.53-2.28-2.35c-15.56-27.29-31.43-54.4-47.04-81.66
		c-11.94,14.88-23.46,30.13-36.3,44.27c-10.15,11.2-20.6,22.29-32.12,32.05c-1.37-0.22-1.72-1.67-2.38-2.65
		c-15.59-27.43-31.63-54.6-47.2-82.04c25.86-22.64,47.73-49.38,68.48-76.67c0.22,0.19,0.65,0.56,0.87,0.75
		c16.5,27.65,32.22,55.8,48.52,83.59c21.32-27.86,41.04-56.94,62.23-84.87l0.57-0.37c0.33,0.07,1,0.22,1.33,0.29
		c16.05,27.74,32.08,55.5,48.09,83.27c9.21-11.07,17.69-22.77,27.15-33.66c12.93-15.15,26.49-29.84,41.53-42.95
		c-9.19-16.35-18.74-32.49-28.06-48.77c-6.79-11.42-13.01-23.19-20.12-34.41c-0.05-0.99-0.08-1.99-0.1-2.98
		c3.17-2,5.91-4.57,8.8-6.93c14.43-11.68,30.04-21.98,46.82-29.96C612.335,289.2529,621.815,286.3528,630.935,282.6229
		 M367.415,679.4329c-17.37,11.57-36.26,21.22-56.41,26.88c4.39,8.92,9.85,17.3,14.7,25.99c11.37,19.67,22.65,39.39,34.11,59
		c16.53-5.01,32.39-12.16,47.16-21.13c13.38-7.95,25.56-17.7,37.54-27.58c-16.08-28.36-32.61-56.47-48.79-84.77
		C386.415,665.1729,377.395,672.9429,367.415,679.4329z"/>
	<path fill="#2C2F36" d="M1288.175,283.1028c4.48,0.58,8.62,2.68,12.9099,4.05c20.39,7.67,39.38,18.81,56.61,32.1
		c5.05,3.58,9.37,8.11,14.62,11.42c-0.37,3.79-2.9299,6.75-4.6599,9.98c-14.54,25.42-29.39,50.65-43.79,76.14
		c22.99,20.19,42.8199,43.68,61.5699,67.79c2.2301,2.78,4.0601,5.94,6.92,8.17c-0.62,3.14-2.5599,5.74-4.13,8.46
		c-14.95,25.86-29.7999,51.78-44.8099,77.6c21.6899,28.28,41.63,57.85,63.23,86.19c16.2999-28.27,32.77-56.45,48.88-84.83
		c20.3199,26.17,41.1799,52.19,65.9099,74.39c0.9601,1.01,2.39,1.76,2.77,3.24c-16.12,28.21-32.37,56.45-48.7999,84.52
		c24.64,21.69,53.11,39.57,84.74,48.98c7.2999-12.21,14.25-24.63,21.4199-36.93c9.0801-16.04,18.67-31.81,27.4701-48.01
		c-30.28-8.7-57.63-25.63-81.4401-46c-1.0499-1.03-2.5699-1.77-2.95-3.27c15.86-28.4,32.74-56.31,48.58-84.75
		c-25.84-22.66-47.6699-49.4-68.4299-76.65c-16.52,28.09-32.65,56.42-48.9601,84.63c-7.1799-8.64-13.47-17.97-20.1899-26.97
		c-12.72-17.62-25.36-35.3-38.34-52.74c-1.88-2.54-4.5-4.82-4.6001-8.21c4.88-7.18,8.8-14.97,13.27-22.4
		c11.55-19.95,23.0701-39.92,34.59-59.87c0.3401-0.08,1.01-0.23,1.3501-0.31c3.59,3.48,6.0599,8.08,9.2699,11.97
		c17.89,24.33,35.2401,49.07,53.3701,73.23c3.6-5.35,6.5199-11.11,9.83-16.63c11.5-19.86,22.95-39.75,34.4299-59.63
		c1.5801-2.8,3.02-5.74,5.2201-8.13c20.7799,27.31,42.6699,54.07,68.5499,76.75c-15.6799,27.65-31.74,55.08-47.59,82.62
		c-0.39,0.95-1.65,2.41-0.4,3.26c24,21.28,51.99,38.46,82.77,47.92l0.0601,0.86c-0.2401,2.69-2.0701,4.81-3.3,7.11
		c-11.2,19.42-22.41,38.83-33.63,58.2401c-3.53,6.4-7.61,12.5-10.73,19.12c34.0599,10.09,70.52,10.12,105.21,3.3
		c2.03-0.47,4.13-0.63,6.24-0.55c-11.3199,19.33-22.5499,38.71-33.59,58.2c-5.3101,8.7-10.2,17.65-15.42,26.41
		c-36.75,7.55-75.61,8.71-111.77-2.42c-15.0099,26-30.0399,51.98-45.0099,78c-1.41,2.22-2.3401,4.92-4.6001,6.45
		c-5.9399-0.83-11.47-3.62-17.1-5.61c-20.15-8.15-38.83-19.65-55.83-33.16c-3.7001-2.85-7.0601-6.13-10.9501-8.72
		c-0.0299-1-0.0299-1.99,0.01-2.97c4.3501-6.29,7.74-13.19,11.7101-19.72c12.11-21.19,24.61-42.16,36.47-63.49
		c-15.72-13.79-29.96-29.18-43.4-45.17c-8.8-10.14-16.63-21.07-25.24-31.36c-16.1899,28.21-32.5699,56.3-48.72,84.53
		c-10.1901-12.61-19.3401-26.03-28.9501-39.08c-11.4299-15.79-22.7-31.69-34.5399-47.17c-16.39,28.22-32.5701,56.56-49.03,84.74
		c-20.97-27.44-43.05-54.25-68.91-77.26c15.1801-25.91,30.04-52.0099,45.12-77.98c1.2101-2.15,2.67-4.21,3.42-6.57
		c-0.03-1.27-1.47-1.84-2.1801-2.69c-23.9199-20.45-51.34-37.82-81.89-46.23c-3.98,5.47-6.84,11.67-10.3999,17.43
		c-12.91,22.39-25.86,44.76-38.7101,67.19c-12.26-3.51-24.7999-6.16-37.51-7.27c-15.7-1.38-31.53-1.12-47.2,0.46
		c-9.19,1.05-18.25,2.94-27.39,4.23c16.39-28.3,32.66-56.68,49.1-84.95c36.77-7.59,75.62-8.69,111.8,2.42
		c15.62-27.06,31.3099-54.09,46.86-81.19c0.8-1.65,2.3101-2.7,3.78-3.71c6.9399,2.94,14.24,4.94,21.08,8.16
		c22.49,9.77,42.9401,23.78,61.39,39.83c0.14,0.35,0.41,1.05,0.55,1.4c-2.53,6.14-6.61,11.58-9.7101,17.47
		c-12.87,22.4301-26,44.72-38.72,67.2401c25.97,22.57,47.49,49.62,68.66,76.58c16.24-28.15,32.53-56.28,48.76-84.44
		c-18.16-24.19-37.4701-47.66-59.36-68.6c-2.8601-3.1-6.8-5.32-8.9401-9c16.03-28.28,32.4-56.38,48.72-84.5
		c-24.61-21.7-53.1-39.6-84.74-48.93c-11.12,18.92-21.97,37.99-32.98,56.97c-5.0599,9.01-10.5499,17.79-15.33,26.95
		c-0.54,0.17-1.63,0.5-2.17,0.67c-35.72-10.62-74.04-9.77-110.22-1.97c1.24-4.16,3.97-7.63,6-11.41
		c13.99-24.51,28.4299-48.78,42.16-73.43c36.87-8.44,76.0499-8.79,112.49,1.95c14.98-26.51,30.4399-52.74,45.5399-79.18
		C1285.405,286.4828,1286.375,284.4229,1288.175,283.1028z"/>
	<path fill="#FBE2BA" d="M596.465,416.7928c24.59-21.73,53.13-39.96,84.95-48.82c15.85,28.03,32.42,55.67,48.09,83.8
		c0.52,0.16,1.57,0.47,2.09,0.63c35.7401-10.61,74.07-9.79,110.27-1.95c3.72,4.9,6.75,10.33,10.06,15.52
		c4.49,7.85,7.49,16.64,13.41,23.62c2.58,3.28,4.1,7.21,6.23,10.78c6.75,11.76,13.87,23.34,20.37,35.26
		c-14.01-3.72-28.53-5.15-42.96-6.1c-23.39-1.18-47.08,1.15-69.53,7.97c-15.55-27.09-31.28-54.08-46.8-81.19
		c-0.78-1.73-2.33-2.78-3.91-3.67c-6.18,2.69-12.73,4.39-18.85,7.22c-23.8,9.86-45.05,24.83-64.57,41.45
		C629.025,473.1529,612.875,444.9029,596.465,416.7928z"/>
	<path fill="#FBE2BA" d="M1238.835,367.8129c31.64,9.33,60.13,27.23,84.74,48.93c-16.3199,28.12-32.6899,56.22-48.72,84.5
		c2.14,3.68,6.08,5.9,8.9401,9c21.8899,20.94,41.2,44.41,59.36,68.6c-16.23,28.16-32.52,56.29-48.76,84.44
		c-21.17-26.96-42.6901-54.0099-68.66-76.58c12.72-22.52,25.85-44.81,38.72-67.2401c3.1001-5.89,7.1801-11.33,9.7101-17.47
		c-0.14-0.35-0.41-1.05-0.55-1.4c-18.45-16.05-38.9-30.06-61.39-39.83c-6.84-3.22-14.14-5.22-21.08-8.16
		c-1.47,1.01-2.98,2.06-3.78,3.71c-15.55,27.1-31.24,54.13-46.86,81.19c-36.1801-11.11-75.03-10.01-111.8-2.42
		c3.5901-6.26,6.78-12.75,10.49-18.94c4.55-8.37,10.3501-16.02,14.42-24.66c3.1-6.67,7.84-12.42,10.95-19.09
		c1.79-3.93,4.9501-6.99,6.9801-10.77c2.1799-3.73,3.58-7.99,6.59-11.19c36.1799-7.8,74.5-8.65,110.22,1.97
		c0.54-0.17,1.63-0.5,2.17-0.67c4.78-9.16,10.27-17.94,15.33-26.95C1216.865,405.8029,1227.715,386.7328,1238.835,367.8129z"/>
	<path fill="#FBE1BA" d="M211.045,536.8629c32.23-9.2,61.49-27.22,86.35-49.48c15.57,27.44,31.61,54.61,47.2,82.04
		c0.66,0.98,1.01,2.43,2.38,2.65c11.52-9.76,21.97-20.85,32.12-32.05c12.84-14.14,24.36-29.39,36.3-44.27
		c15.61,27.26,31.48,54.37,47.04,81.66c0.67,0.82,0.92,2.45,2.28,2.35c21.54-28.12,41.5-57.42,62.84-85.71
		c16.25,27.78,32.13,55.79,48.35,83.58c0.23,0.07,0.6801,0.2,0.91,0.27c2.48-1.89,4.1-4.6,6.01-7.02
		c18.98-24.55,39.21-48.3,62.41-69c16.54,28.15,32.82,56.47,49.03,84.82c-16.48,14.34-31.23,30.55-45.23,47.28
		c-8.11,9.53-15.46,19.68-23.46,29.29c-9.96-17.3101-19.98-34.58-29.96-51.8701c-6.37-10.69-12.15-21.7599-18.88-32.21
		c-0.76,0.41-1.38,0.98-1.85,1.73c-20.89,27.74-40.52,56.41-61.52,84.08c-16.31-28-32.29-56.21-48.74-84.13
		c-2.78,1.36-4.03,4.45-5.99,6.69c-19.23,24.73-39.37,49.04-63.13,69.57c-9.52-16.65-19.17-33.21-28.74-49.82
		c-6.74-11.43-13.04-23.13-20.05-34.39c-1.55,0.62-2.88,1.63-4.11,2.74c-23.55,20.47-51,36.7-80.92,45.84
		c-16.29-28.28-32.61-56.56-48.94-84.82C212.325,536.7328,211.465,536.8229,211.045,536.8629z"/>
	<path fill="#FBE2BA" d="M1622.585,487.3829c24.9,22.24,54.0801,40.23,86.3201,49.5c-0.42-0.05-1.26-0.14-1.67-0.19
		c-15.58,26.95-31.0699,53.96-46.72,80.86c-0.61,1.33-2.12,2.58-1.39,4.16c35.8099,10.9301,74.4301,9.95,110.8099,2.23
		c-3.8899,8.5-9.34,16.18-13.6499,24.47c-10.63,18.07-20.8,36.43-31.53,54.45c-1.26,2.03-2.27,4.2-3.1801,6.4h-0.36
		c-2.11-0.08-4.21,0.08-6.24,0.55c-34.6899,6.82-71.15,6.79-105.21-3.3c3.12-6.62,7.2-12.72,10.73-19.12
		c11.22-19.41,22.4301-38.82,33.63-58.2401c1.23-2.3,3.0599-4.42,3.3-7.11l-0.0601-0.86c-30.78-9.46-58.77-26.64-82.77-47.92
		c-1.25-0.85,0.01-2.31,0.4-3.26C1590.845,542.4628,1606.905,515.0328,1622.585,487.3829z"/>
	<path fill="#2C2F36" d="M1707.235,536.6929c0.41,0.05,1.25,0.14,1.67,0.19c25.2,7.34,51.83,9.32,77.9199,6.78
		c10.9801-0.75,21.77-3.02,32.63-4.75c-15.5599,26.94-31.14,53.86-46.64,80.84c-0.98,1.37-1.4299,3.25-2.88,4.19
		c-36.3799,7.72-75,8.7-110.8099-2.23c-0.73-1.58,0.78-2.83,1.39-4.16C1676.165,590.6528,1691.655,563.6429,1707.235,536.6929z"/>
	<path fill="#FBE2BA" d="M696.145,585.2529c24.16-20.95,52-38.7,83.04-47.25c1.87,2.18,3.09,4.8,4.53,7.27
		c14.8701,25.78,29.78,51.53,44.58,77.35c-31.62,9.3-60.06,27.18-84.64,48.86c-15.95-27.18-31.49-54.59-47.35-81.81
		C695.585,588.3229,694.225,586.2729,696.145,585.2529z"/>
	<path fill="#FBE2BA" d="M1130.415,555.4229c3.5599-5.76,6.4199-11.96,10.3999-17.43c30.55,8.41,57.9701,25.78,81.89,46.23
		c0.7101,0.85,2.15,1.42,2.1801,2.69c-0.75,2.36-2.21,4.42-3.42,6.57c-15.08,25.97-29.9399,52.07-45.12,77.98
		c-24.59-21.66-53.0499-39.52-84.64-48.85C1104.5551,600.1829,1117.505,577.8129,1130.415,555.4229z"/>
	<path fill="#E2925F" d="M828.295,622.6229c14.83-4.33,30.13-7.1,45.57-7.87c16.31,28.94,33.06,57.64,49.66,86.41
		c1.3799,2.61,3.37,4.95,4.18,7.83c-0.38,2.21-1.75,4.06-2.82,5.98c-2.77,4.38-5.33,8.88-7.88,13.39
		c-11.35-19.17-22.23-38.61-33.53-57.81c-3.36-5.71-6.39-11.61-10.1-17.1c-30.99,1.77-61.53,10.92-88.31,26.63
		c-18.05,10.3-34.4,23.34-49.47,37.6c-4.22,3.75-8.38,7.58-12.11,11.82c-57.32,59.56-97.14,133.21-152.89,194.09
		c-18.89,20.26-39.42,39.34-63.14,53.85c-23.23,14.47-49.29,24.6-76.43,28.54c-27.83,4.19-56.32,2.34-83.77-3.44
		c-1.81-0.29-2.53-2.19-3.47-3.5c-35.99-62.61-72.18-125.1-108.27-187.66c-3.27-5.45-6.17-11.12-9.64-16.46
		c1.85-9.4,3.65-18.84,6.22-28.07c5.29,8.98,10.4,18.06,15.69,27.03c16.26,28.24,32.53,56.46,48.88,84.64
		c15.82,27.68,31.87,55.23,47.75,82.87c0.48,0.91,1.12,1.71,1.91,2.39c36.68,7.64,75.46,8.57,111.59-2.43
		c31.6-9.41,60.2599-27.13,84.72-49.02c26.05-22.82,48.24-49.67,68.9-77.35c21.69-28.28,41.76-57.77,63.19-86.25
		c20.96-27.45,43.05-54.26,68.93-77.25C768.235,649.8029,796.675,631.9229,828.295,622.6229z"/>
	<path fill="#416877" d="M873.865,614.7529c16.31-0.79,32.7-0.07,48.85,2.5c6.21,1.1,12.8701,1.19,18.53,4.33
		c5.87,10.05,11.66,20.16,17.44,30.2599c0.27,0.95,2.07,1.45,2.36,0.22c6.31-10.6,12.31-21.39,18.56-32.03
		c9.14-1.29,18.2-3.18,27.39-4.23c15.67-1.58,31.5-1.84,47.2-0.46c-2.76-0.15-5.5199-0.11-8.26-0.06
		c-16.6399,29.52-33.9099,58.67-50.7,88.1c-1.18,2.35-4.07,4.94-2.29,7.7c3.31,5.7599,6.62,11.52,10.01,17.24
		c31.8699,55.38,63.8599,110.7,95.82,166.03c0.72,1.29,0.8099,2.98,0.03,4.28c-2.63,4.36-6.4601,7.87-10.6201,10.74
		c-5.62,3.72-11.0599,7.83-17.35,10.41c-5.7799,2.4-12.0699,5.18-18.45,3.68c-3.4501-3.6899-5.1901-8.6299-7.9401-12.8199
		c-27.9899-48.6-56.1799-97.1-84.03-145.79c-2.05,1.66-3.15,4.1-4.35,6.37c-29.01,50.03-57.77,100.2-86.74,150.24
		c-1.72,3.54-6.3,2.3-9.42,2.0601c-9.5-2.3101-18.23-7.1-26.22-12.63c-4.74-3.4301-9.49-7.1801-12.51-12.28
		c-0.78-1.3-0.71-2.98,0.02-4.26c31.94-55.32,63.94-110.62,95.81-165.99c2.55-4.51,5.11-9.01,7.88-13.39
		c1.07-1.92,2.44-3.77,2.82-5.98c-0.81-2.88-2.8-5.22-4.18-7.83C906.925,672.3929,890.175,643.6929,873.865,614.7529z"/>
	<path fill="#E2925F" d="M1054.1949,615.3428c12.7101,1.11,25.25,3.76,37.51,7.27c31.5901,9.33,60.05,27.19,84.64,48.85
		c25.86,23.01,47.9401,49.82,68.91,77.26c21.42,28.5,41.6,57.91,63.2,86.28c20.7101,27.63,42.8501,54.5,68.87,77.33
		c24.51,21.86,53.15,39.62,84.76,49.04c36.3201,10.88,75.3301,10.28,112.14,2.18c16.47-28.26,32.79-56.62,49.0601-84.99
		c16.37-28.19,32.6799-56.42,48.9199-84.69c5.2201-8.76,10.11-17.71,15.42-26.41c1.83,3.57,2.2,7.63,3.17,11.48
		c1.1399,5.42,2.5199,10.81,3.2699,16.32c-11.13,17.97-21.1499,36.62-31.9399,54.8c-28.05,48.67-56.2,97.27-84.2,145.96
		c-1.66,2.42-2.64,6.17-5.9601,6.6899c-39.7,8.3701-82,7.95-120.37-6.18c-32.3199-11.65-60.9-31.92-85.37-55.77
		c-25.96-25.01-48.08-53.62-69.41-82.57c-33.98-46.32-66.0299-94.52-106.74-135.36c-10.39-9.64-20.85-19.23-32.24-27.6801
		c-32.01-24.08-70.88-39.8799-111.1-41.49c-3.01,2.92-4.36,7.05-6.5699,10.54c-12.4701,21.33-24.61,42.86-37.21,64.12
		c-3.39-5.72-6.7-11.48-10.01-17.24c-1.78-2.76,1.11-5.35,2.29-7.7c16.79-29.43,34.0601-58.58,50.7-88.1
		C1048.675,615.2328,1051.4349,615.1929,1054.1949,615.3428z"/>
	<path fill="#FBE1BA" d="M150.895,624.2328c36.36,7.41,74.69,8.24,110.48-2.54c10.07,16.69,19.53,33.75,29.38,50.58
		c6.41,11.45,13.44,22.5699,19.47,34.22c-33.74,10.04-69.85,10.13-104.25,3.5c-2.38-0.54-4.8-0.88-7.24-0.75h-0.26
		c-4.13-8.52-9.31-16.46-13.92-24.72c-9.79-16.95-19.61-33.89-29.34-50.8701C153.555,630.6129,151.265,627.7928,150.895,624.2328z"
		/>
	<path fill="#FECF67" d="M785.065,680.0829c26.78-15.71,57.32-24.86,88.31-26.63c3.71,5.49,6.74,11.39,10.1,17.1
		c11.3,19.2,22.18,38.64,33.53,57.81c-31.87,55.37-63.87,110.67-95.81,165.99c-0.73,1.28-0.8,2.96-0.02,4.26
		c3.02,5.1,7.77,8.85,12.51,12.28c-3.67,7.44-8.3,14.36-12.14,21.7c-2.06,3.46,1.12,7.03,3.28,9.59
		c6.32,6.26,13.99,11.03,21.86,15.11c5.76,2.65,11.85,5.25,18.29,5.38c1.82,0.22,3.34-0.98,4.22-2.46
		c18.62-32.1,37.15-64.2599,55.68-96.4c11.8-20.06,22.98-40.48,35.11-60.33c8.74,13.92,16.5,28.44,24.89,42.58
		c20.76,35.97,41.53,71.94,62.27,107.92c1.73,2.82,2.98,6.13,5.61,8.26c2.3,0.89,4.89,0.37,7.24-0.09
		c11.27-2.62,21.36-8.73,30.4399-15.72c3.7301-3.06,7.8701-6.53,8.8501-11.5c-0.3301-1.58-1.12-2.99-1.87-4.37
		c-3.63-6.22-7.2201-12.46-10.8501-18.67c0.51-0.86,1.0601-1.7,1.62-2.52c4.16-2.87,7.9901-6.38,10.6201-10.74
		c0.7799-1.3,0.6899-2.99-0.03-4.28c-31.9601-55.33-63.9501-110.65-95.82-166.03c12.6-21.26,24.7399-42.79,37.21-64.12
		c2.21-3.4901,3.5599-7.62,6.5699-10.54c40.22,1.61,79.09,17.41,111.1,41.49c11.39,8.45,21.85,18.04,32.24,27.6801
		c40.7101,40.84,72.76,89.04,106.74,135.36c21.3301,28.95,43.4501,57.56,69.41,82.57c24.47,23.85,53.05,44.12,85.37,55.77
		c38.37,14.13,80.67,14.55,120.37,6.18c3.3201-0.52,4.3-4.27,5.9601-6.6899c28-48.69,56.1499-97.29,84.2-145.96
		c10.79-18.18,20.8099-36.83,31.9399-54.8l0.15-0.23c4.4601,23.5,8.35,47.15,10.64,70.97c1.3101,10.3,1.4301,20.69,2.58,31
		c-0.0599,8.67,1.1901,17.28,0.9401,25.96c1.04,47.52-2.05,95.1-9.74,141.9999c-13.9,83.23-41.8201,164.11-82.64,237.98
		c-9.96,17.8401-20.34,35.5-31.96,52.3101c-6.0601-19.6-12.76-39-20.2001-58.11c-6.08-15.01-15.7999-28.39-27.6699-39.35
		c-11.9601-11.16-26.01-19.79-40.39-27.4701c2.37-4.61,4.46-9.36,6.9399-13.9199c24.7101-0.27,49.4401,0.3199,74.14-0.3l1.1801-0.67
		c10.1499-2.2,20.5-6.9099,26.23-15.99c5.21-7.7799,3.6799-17.59,3.9399-26.4299c-0.5-6.49,0.49-13.54-3.0299-19.36
		c-5.0801-9.23-14.9901-14.85-25.05-16.98c-9.28-2.26-18.78-0.26-28.13,0.22c-17.1899,1.25-34.35,2.77-51.5601,3.77
		c-10.58,1-21.24,5.3999-28.11,13.74c-4.12,4.84-6.01,11.26-5.7799,17.5599c0.25,9.3401-1.1001,19.14,2.87,27.9401
		c1.37,6.1599-1.4301,12.0499-2.1001,18.1c-3.2699-1.16-6.73-1.88-9.7899-3.52c-2.9401-4.05-4.47-8.95-6.73-13.38
		c-16.75-35.73-34.4801-71.09-55.3201-104.64c-17.35-27.4399-37.1-53.88-62.25-74.6699c-15.33-12.62-32.61-22.84-51.11-30.04
		c-36.27-14.23-75.5599-17.89-114.15-19.83c-26.64-0.93-53.2899-1.47-79.95-1.22c-64.01,0.62-128.02,1.28-192.03,0.64
		c-58.32-0.29-116.73-2.12-174.98,1.91c-40.06,3.11-81.12,9.88-116.4,30.21c-29.15,16.44-52.6,41.2199-72.08,68.0999
		c-20.72,28.9801-38.03,60.25-53.96,92.0801c-9.94,19.9199-19.66,39.98-28.52,60.4c-2.12,3.12-6.39,3.6699-9.44,5.62
		c-2.28-5.9-5.08-12.4-2.88-18.75c1.41-5.1901,0.94-10.62,1.34-15.92c0.27-6.9399,0.89-14.35-2.42-20.73
		c-4.08-7.8-11.66-13.28-19.86-16.12c-9.55-3.61-19.89-2.3301-29.83-3.47c-16.63-1.8201-33.35-2.54-50-4.1001
		c-12.1-0.08-24.9,4-33.03,13.3401c-4.39,4.89-6.61,11.5-6.29,18.0399c0.22,7.66-0.33,15.3401,0.28,22.98
		c1.64,11.77,12.15,20.2001,22.93,23.6101c8.39,3.1499,17.46,2.0199,26.22,2.22c19.84,0.13,39.68-0.26,59.51,0.21
		c2.19,4.8101,4.56,9.5701,7.66,13.88c-11.66,8.59-22.6,18.36-31.17,30.1c-6.05,8.1901-10.7,17.3501-14.18,26.9
		c-8.54,22.35-16.11,45.0601-22.64,68.0701c-4.34-4.53-7.3-10.2001-10.92-15.3c-48.35-72.83-83.69-154.29-103.8-239.37
		c-3.2-13.34-5.8-26.8-8.53-40.23c-2.96-19.28-6.13-38.55-7.94-57.97c-3.52-35.55-4.32-71.36-3.13-107.07
		c2.04-38.58,5.89-77.22,13.95-115.06c3.47,5.34,6.37,11.01,9.64,16.46c36.09,62.56,72.28,125.05,108.27,187.66
		c0.94,1.31,1.66,3.21,3.47,3.5c27.45,5.78,55.94,7.63,83.77,3.44c27.14-3.94,53.2-14.07,76.43-28.54
		c23.72-14.51,44.25-33.59,63.14-53.85c55.75-60.88,95.57-134.53,152.89-194.09c3.73-4.24,7.89-8.07,12.11-11.82
		C750.665,703.4229,767.015,690.3829,785.065,680.0829z"/>
	<path fill="#FBE1BA" d="M367.415,679.4329c9.98-6.49,19-14.26,28.31-21.61c16.18,28.3,32.71,56.41,48.79,84.77
		c-11.98,9.88-24.16,19.63-37.54,27.58c-14.77,8.97-30.63,16.12-47.16,21.13c-11.46-19.61-22.74-39.33-34.11-59
		c-4.85-8.69-10.31-17.07-14.7-25.99C331.155,700.6528,350.045,691.0029,367.415,679.4329z"/>
	<path fill="#FBE1BA" d="M564.155,748.0829c20.86-27.78,40.55-56.42,61.54-84.1c16.42,28.2,32.56,56.57,49.03,84.75
		c-21.43,28.48-41.5,57.97-63.19,86.25c-15.7599-27.12-31.45-54.27-47.06-81.47c-0.7-0.88-0.95-2.45-2.3-2.45
		c-2.99,2.44-4.91,5.88-7.34,8.83c-18.47,23.69-38.03,46.74-60.56,66.7c-0.03,0.45-0.09,1.35-0.12,1.8
		c16.2,27.96,32.27,55.99,48.48,83.94c-24.46,21.89-53.12,39.61-84.72,49.02c-15.35-26.7-30.81-53.34-46.17-80.04
		c-1.1-1.61-1.62-3.9-3.6-4.65c-4.12,0.53-8.02,2.12-12.1,2.89c-32.65,7.46-66.77,5.85-99.38-1.03
		c-16.35-28.1801-32.62-56.4-48.88-84.64c16.89,3.27,34,5.69,51.22,5.77c20.54,0.35,41.11-2.4,60.84-8.12
		c15.04,27.01,30.9,53.57,46.18,80.44c0.83,1.45,1.67,3,3.14,3.92c2.67,0.06,5.1-1.33,7.62-2.05
		c28.14-9.62,53.54-26.0099,75.87-45.46c0.13-0.35,0.39-1.05,0.52-1.4c-0.75-2.95-2.79-5.33-4.18-7.98
		c-14.63-25.63-29.68-51.01-44.13-76.73c17.27-15.1801,32.76-32.27,47.39-49.98c7.33-8.67,13.93-17.93,21.25-26.6
		c10.79,18.78,21.66,37.53,32.48,56.3c5.49,9.21,10.47,18.74,16.26,27.76C563.035,749.4028,563.675,748.8528,564.155,748.0829z"/>
	<path fill="#FBE2BA" d="M1294.285,663.9828c11.84,15.48,23.11,31.38,34.5399,47.17c9.61,13.05,18.76,26.47,28.9501,39.08
		c16.15-28.23,32.53-56.32,48.72-84.53c8.61,10.29,16.4399,21.22,25.24,31.36c13.4401,15.99,27.6801,31.38,43.4,45.17
		c-11.86,21.33-24.36,42.3-36.47,63.49c-3.9701,6.53-7.36,13.43-11.7101,19.72c-0.0399,0.98-0.0399,1.97-0.01,2.97
		c3.89,2.59,7.25,5.87,10.9501,8.72c17,13.51,35.6799,25.01,55.83,33.16c5.63,1.99,11.16,4.78,17.1,5.61
		c2.26-1.53,3.1901-4.23,4.6001-6.45c14.97-26.02,30-52,45.0099-78c36.16,11.13,75.02,9.97,111.77,2.42
		c-16.24,28.27-32.5499,56.5-48.9199,84.69c-26.36,5.41-53.5601,7.76-80.3401,4.29c-10.5699-1.09-20.84-3.86-31.1399-6.19
		c-0.9701,0.42-1.65,1.11-2.0701,2.08c-15.83,27.58-31.8199,55.05-47.65,82.63c-31.61-9.42-60.25-27.18-84.76-49.04
		c16.36-27.88,32.11-56.1201,48.6801-83.88c-0.05-0.48-0.14-1.45-0.1901-1.93c-25.86-22.51-47.38-49.42-68.2999-76.44
		c-16.3101,28.33-32.64,56.65-49.0601,84.92c-21.6-28.37-41.7799-57.78-63.2-86.28
		C1261.715,720.5428,1277.895,692.2029,1294.285,663.9828z"/>
	<path fill="#2C2F36" d="M562.175,751.0629c1.35,0,1.6,1.57,2.3,2.45c15.61,27.2,31.3,54.35,47.06,81.47
		c-20.66,27.68-42.85,54.53-68.9,77.35c-16.21-27.95-32.28-55.98-48.48-83.94c0.03-0.45,0.09-1.35,0.12-1.8
		c22.53-19.96,42.09-43.0099,60.56-66.7C557.265,756.9429,559.185,753.5029,562.175,751.0629z"/>
	<path fill="#2C2F36" d="M1357.515,750.0829c20.9199,27.02,42.4399,53.93,68.2999,76.44c0.05,0.48,0.14,1.45,0.1901,1.93
		c-16.5701,27.7599-32.3201,56-48.6801,83.88c-26.0199-22.83-48.1599-49.7-68.87-77.33
		C1324.875,806.7328,1341.205,778.4128,1357.515,750.0829z"/>
	<path fill="#E2925F" d="M956.065,771.2228c1.2-2.27,2.3-4.71,4.35-6.37c27.85,48.69,56.04,97.19,84.03,145.79
		c2.75,4.19,4.49,9.13,7.9401,12.8199c6.38,1.5,12.67-1.28,18.45-3.68c6.29-2.58,11.73-6.69,17.35-10.41
		c-0.5599,0.82-1.11,1.66-1.62,2.52c3.63,6.21,7.2201,12.45,10.8501,18.67c0.75,1.38,1.5399,2.79,1.87,4.37
		c-0.98,4.97-5.12,8.44-8.8501,11.5c-9.08,6.99-19.1699,13.1-30.4399,15.72c-2.35,0.46-4.9399,0.98-7.24,0.09
		c-2.63-2.13-3.88-5.44-5.61-8.26c-20.74-35.98-41.51-71.95-62.27-107.92c-8.39-14.14-16.15-28.66-24.89-42.58
		c-12.13,19.85-23.31,40.27-35.11,60.33c-18.53,32.14-37.06,64.3-55.68,96.4c-0.88,1.48-2.4,2.6801-4.22,2.46
		c-6.44-0.13-12.53-2.73-18.29-5.38c-7.87-4.08-15.54-8.85-21.86-15.11c-2.16-2.56-5.34-6.13-3.28-9.59
		c3.84-7.34,8.47-14.2599,12.14-21.7c7.99,5.53,16.72,10.3199,26.22,12.63c3.1201,0.24,7.7,1.48,9.42-2.0601
		C898.295,871.4229,927.055,821.2529,956.065,771.2228z"/>
	<path fill="#2C2F36" d="M396.045,879.5529c4.08-0.77,7.98-2.36,12.1-2.89c1.98,0.75,2.5,3.04,3.6,4.65
		c15.36,26.7,30.82,53.34,46.17,80.04c-36.13,11-74.91,10.07-111.59,2.43c-0.79-0.68-1.43-1.48-1.91-2.39
		c-15.88-27.64-31.93-55.19-47.75-82.87C329.275,885.4028,363.395,887.0129,396.045,879.5529z"/>
	<path fill="#2C2F36" d="M1509.735,878.7429c0.42-0.97,1.1-1.66,2.0701-2.08c10.2999,2.33,20.5699,5.1,31.1399,6.19
		c26.78,3.47,53.9801,1.12,80.3401-4.29c-16.27,28.37-32.5901,56.73-49.0601,84.99c-36.8099,8.1-75.8199,8.7-112.14-2.18
		C1477.915,933.7928,1493.905,906.3229,1509.735,878.7429z"/>
	<path fill="#E3705E" d="M721.005,973.2529c58.25-4.03,116.66-2.2,174.98-1.91c64.01,0.64,128.02-0.02,192.03-0.64
		c26.66-0.25,53.3099,0.29,79.95,1.22c38.5901,1.94,77.88,5.6,114.15,19.83c18.5,7.2,35.78,17.42,51.11,30.04
		c25.15,20.7899,44.9,47.23,62.25,74.6699c20.84,33.55,38.5701,68.91,55.3201,104.64c2.26,4.4301,3.7899,9.33,6.73,13.38
		c3.0599,1.64,6.52,2.36,9.7899,3.52c5.64,1.67,10.6901,4.83,16.26,6.7c4.2301,1.49,8.27,3.4601,12.2001,5.62
		c14.38,7.6801,28.4299,16.3101,40.39,27.4701c11.87,10.96,21.59,24.34,27.6699,39.35c7.4401,19.11,14.14,38.51,20.2001,58.11
		c12.58,42.6899,21.95,86.97,20.37,131.7c-0.85,21.38-4.48,42.78-12.0901,62.8301c-9.1-0.48-18.22-1.8301-27.33-0.77
		c-6.1,0.73-12.3099,0.16-18.33,1.52c-12.6901-0.49-25.1,2.6799-37.7101,3.36c-12.22,1.3099-24.36,3.15-36.5299,4.8099
		c-1.4501-4.45-0.67-9.1799-1.42-13.73c-0.8199-9.39-2.37-18.74-4.99-27.79c-2.2-6.46-5.23-13.46-11.46-16.9399
		c-4.5701-1.8101-10.2001-0.96-13.9501,2.25c-5.62,4.76-10.59,10.3199-14.3099,16.7c-0.61,0.9-0.74,2.01-0.8301,3.0901
		c-9.1499,14.48-13.77,31.14-19.86,47c-9.2999-0.2201-18.35,2.13-27.5399,3.12c-49.2401,7.2799-98.5601,14.01-148.03,19.58
		c-4.8101,0.55-9.6901,0.38-14.4601,1.29c-12.6599,2.08-25.5,2.62-38.21,4.23c-33.0599,2.87-66.13,5.74-99.27,7.23
		c-6.34,0.87-12.73,0.7-19.09,0.96c-14.3199,1.02-28.6801,0.91-43.02,0.77c7.99,0.4501,15.98,0.9401,23.98,1.01
		c-28.99-0.1-57.99,0.39-86.99,0.23c-16.33-0.23-32.6899,0.25-48.98-1.1c-13.69,0.03-27.34-0.96-41.01-1.27
		c-12.64-1.3199-25.38-1.15-38.01-2.47c-71.93-4.7-143.58-13-214.99-22.8c-11.25-1.3099-22.39-3.2999-33.57-5.0499
		c-11.83-1.11-23.55-3.13-35.2599-5.0701c-3.22-0.45-2.62-4.49-3.83-6.74c-3.53-7.7799-4.92-16.34-8.75-24.01
		c-5.49-11.0299-10.26-22.7999-18.95-31.7899c-3.83-4.27-8.71-7.9701-14.55-8.6801c-7.74,0.3101-12.74,7.5-15.06,14.16
		c-1.25,5.54-2.72,11.04-4.01,16.59c-2.55,9.91-2.32,20.21-2.66,30.36c-17.85-1.4399-35.5-4.86-53.34-6.6
		c-25.73-3.53-51.77-4.71-77.73-3.46c-6.88-17.8201-10.4-36.78-11.76-55.78c-0.13-8.35-1.24-16.6899-0.37-25.03
		c0.72-33.5699,7.55-66.6699,16.11-99.0399c6.53-23.01,14.1-45.7201,22.64-68.0701c3.48-9.5499,8.13-18.71,14.18-26.9
		c8.57-11.74,19.51-21.51,31.17-30.1c8.25-5.95,17.15-10.91,26.37-15.1899c3.05-1.9501,7.32-2.5,9.44-5.62
		c8.86-20.42,18.58-40.4801,28.52-60.4c15.93-31.8301,33.24-63.1,53.96-92.0801c19.48-26.88,42.93-51.6599,72.08-68.0999
		C639.885,983.1329,680.945,976.3629,721.005,973.2529 M749.015,988.4429c0.82,0.26,2.46,0.77,3.28,1.02l-0.3-0.0099
		c-11.67-0.1-23.38,0.04-34.98,1.4c-5.33,1.1-10.82,0.44-16.13,1.63c-5.22,1.25-10.66,1.05-15.84,2.47
		c-3.77,0.97-7.99,0.44-11.34,2.71c-4.72,0.06-9.07,2.21-13.72,2.76c-20.21,5.7-40.29,13.46-56.98,26.5099
		c-22.14,16.9901-38.14,40.38-51.79,64.4301c-20.75,37.33-38.65,76.17-56.0799,115.15c-0.19-0.09-0.59-0.28-0.78-0.38
		c-0.03,1.22-0.05,2.45-0.07,3.7c25.14-4.34,50.49-7.48,75.86-9.83c3.85-1.1901,7.8199-1.71,11.84-1.85
		c12.32-1.41,24.66-2.66,36.99-3.9501c5.22-0.7,10.53-0.47,15.7-1.62c6.11-0.1699,12.18-0.9299,18.29-1.3199
		c10.07-1.6,20.34-1.14,30.4-2.77c7.57,0.01,15.06-1.17,22.64-1.08c5.28-0.9701,10.62-1,15.96-1.25
		c6.97-1.12,14.08-0.0701,21.03-1.3101c4.96-0.83,10.02-0.15,15-0.78c8.28-1.0199,16.68,0.1001,24.92-1.34
		c7.07-0.6,14.2-0.0699,21.28-0.53c11.34-1.4099,22.86,0.1801,34.17-1.6c12.21-0.25,24.44-0.16,36.65-0.37
		c7.62-0.91,15.29-0.4,22.94-0.61c42.65-0.22,85.3-0.1,127.95,0.1c4.6799,0.3,9.36,0.88,14.0699,0.3301
		c5.76,0.1899,11.54,0.6299,17.3101,0.3099c-5.5601,1.78-11.48,0.45-17.1901,1.1801c8.67,0.5699,17.4-0.6001,26.01,0.83
		c14.28,0.47,28.59-0.13,42.87,0.47c6.4501,1.22,13.0601,0.1801,19.5,1.47c11.13,0.75,22.37-0.5099,33.4501,1.0901
		c6.7,0.3199,13.4099,0.2999,20.12,0.75c3.4399,0.0499,7.0299,0.73,10.35-0.5801c8.8199,1.41,17.84,0.14,26.63,1.78
		c4.2999,0.33,8.6599,0.02,12.96,0.65c6.62,0.85,13.38-0.15,19.95,1.3099c10.01,0.5901,20.0601,0.8201,30.02,2.1101
		c9.3501,0.38,18.7101,0.7899,27.98,2.0499c8.5901,0.38,17.2001,0.8201,25.7201,2c7.4299,0.4401,14.89,0.77,22.25,1.96
		c12.5299,0.4501,24.9,2.51,37.4199,3.1201c3.26,0.33,6.3401,1.87,9.6901,1.6799c2.84-0.0699,5.6899,0.27,8.36,1.3201
		c0.14-1.0801,0.3-2.14,0.49-3.1801l-0.8099,0.05c-1.9801-6.9-5.8701-13.01-8.5901-19.6001c-9.0499-20.12-18.85-39.8999-28.52-59.7
		c-8.12-15.6801-16.3099-31.33-25.7-46.29c-13.39-20.6799-29.2-40.58-50.37-53.7699c-6.16-3.67-12.1801-7.93-19.16-9.87
		c-0.45-0.32-1.33-0.94-1.77-1.25c-26.23-11.14-54.6699-15.93-82.8899-18.41c-8.76,0.26-17.3101-1.8-26.04-1.92
		c-70.0601-0.96-140.13-0.15-210.18-0.14c-4.35,0.17-8.77-0.49-13.05,0.49c0.26-0.41,0.78-1.24,1.04-1.65
		c-10.61,0.18-21.21-0.21-31.82-0.05c-6.01,0.18-12.01-0.81-18.01-0.1c-14,0.03-28.01,0.05-42-0.51c-25,0.27-50.01-0.02-75.01,0.13
		C770.315,987.6229,759.675,988.5129,749.015,988.4429 M859.325,1200.6228c-5.43,0.45-10.89,0.33-16.32,0.59
		c-12.94,1.73-26.08-0.1699-39,1.67c-5.45,0.5-10.95-0.22-16.37,0.6899c-6.83,1.1801-13.83-0.2-20.63,1.26
		c-12.67,1.04-25.34,2.02-37.98,3.17c-6.4301-0.33-12.72,1.27-19.1,1.71c-10.4,0.54-20.75,1.54-31.07,2.9301
		c-10.93,0.59-21.64,3.0599-32.56,3.76c-10.41,2.0699-21.09,2.58-31.39,5.27c-10.06,2.1-20.17,4.4199-29.59,8.63
		c-3.93,1.7899-8.53,4.5499-8.86,9.35c1.33,4.13,4.75,7.4099,8.48,9.52c5.91,3.22,11.94,6.22,18.15,8.8199
		c11.19,6.24,22.67,12.14,32.8,20.08c4.22,2.3201,6.73,6.5701,10.36,9.62c4.77,4.01,6.72,10.3101,7.57,16.29
		c-0.57,5.88-3.38,11.28-7.07,15.8201c-1.24,2.2799-4.06,5.6-1.62,7.99c3.95,2.9399,9.08,3.4399,13.81,4.1899
		c13.34,2.1901,27.06,0.77,40.08-2.64c4.52-1.0599,9.22-1.22,13.65-2.6799c7.69-2.52,15.96-1.9701,23.7-4.26
		c10.22-0.62,20.34-2.7201,30.61-2.54c26.58-2.55,53.35-1.78,80.01-1.63c6.31,1.16,12.72,0.47,19.09,0.79
		c5.99-0.0701,11.89,1.34,17.9,0.96c8.36-0.5,16.59,1.37,24.94,1.13c6.98,1.39,14.14,0.21,21.12,1.55c3.6,0.63,7.27,0.14,10.89,0.59
		c9.28,1.54,18.71,0.42,28.05,0.67c5.05,0.2799,9.96-1.39,15.01-1.04c4.36,0.28,8.66-0.61,13-0.89c8.34-0.12,16.7,0.02,25.04-0.23
		c7.2899-1.22,14.6799-0.74,22.03-0.87c27.3199-0.0801,54.6399-0.16,81.96,0.0599c6.03-0.3999,11.9399,1.4,17.98,0.9701
		c5.04-0.3401,9.97,1.12,15.01,0.97c5.04-0.2001,10,0.89,15.01,1.26c13.37,1.62,26.78,3.0299,39.96,5.7899
		c11.92,1.5601,24.01,4.3401,36.04,2.2301c5.0599-0.3401,10.16-0.53,15.0699-1.9601c3.67-1.11,8.0801-1.2999,10.9-4.15
		c3.97-7.33-5.04-14.86-1.1799-22.22c2.74-3.59,4.08-8.53,8.35-10.6799c4.1599-2.4301,8.08-5.24,12.23-7.6801
		c6.5-3.58,13.72-5.51,20.34-8.84c8.64-3.24,17.28-6.52,26.24-8.79c11.53-3.66,23.87-7.4,32.3201-16.58
		c2.3099-2.03,1.77-5.47,1.58-8.1901c-2.3199-4.2799-6.6-7.09-10.86-9.2c-6.5-3.8201-13.95-5.38-20.9401-8.01
		c-23.2799-6.23-47.22-9.53-71.08-12.7c-11.05-0.41-21.96-2.51-32.99-3.13c-6.37,0.2799-12.65-1.04-19-1.03
		c-4.03-0.1-7.98-1.11-12.01-0.97c-5.36,0.25-10.62-1.04-15.96-0.9601c-6.0701,0.25-12.02-1.45-18.1-1.01
		c-6.3401,0.41-12.5601-1.1899-18.89-0.99c-4.6801,0.0701-9.37-0.13-14-0.8199c-7.4501-0.5801-14.9701,0.26-22.39-0.8101
		c-5.1901-0.75-10.4501-0.0399-15.65-0.61c-15.53-1.39-31.16-0.1799-46.67-1.58c-6.6899-0.66-13.4299,0.1699-20.09-0.74
		c-5.41-0.66-10.87-0.27-16.29-0.4401c-40.66-0.21-81.31-0.11-121.97-0.09C885.755,1200.2728,872.525,1199.7528,859.325,1200.6228
		 M465.025,1302.2128c-4.52,1.1901-8.68,3.39-13.19,4.61l0.9-1.47c-12.39,2.96-23.58,9.9301-33.22,18.12
		c-14.12,12.04-23.89,28.85-28.06,46.88c-4.75,22.6-1.2,47.1901,11.48,66.6901c8.45,13.63,20.75,24.6799,35.03,31.9099
		c17.75,8.98,38.56,11.54,58.03,7.5701c-1.01-0.35-2.03-0.65-3.04-0.9c5.07-1.11,10.37-0.55,15.36-2.14
		c33.5299-7.8,61.0999-37.05,66.1499-71.22c3.4301-17.71,0.2401-36.26-7.14-52.5801c-9.62-19.6799-26.41-36.0599-46.95-43.98
		C502.945,1298.6028,483.205,1297.3828,465.025,1302.2128 M1407.385,1306.3228c-7.08,3.74-14.4,7.28-20.58,12.4501
		c-5.8101,5.53-12.0801,10.78-16.4401,17.61c-14.05,19.5699-19.78,45.1-14.67,68.74c1.91,8.89,4.62,17.8199,9.53,25.5599
		c10.39,19.2201,28.37,34.17,49.21,40.78c6.91,2.73,14.3701,2.99,21.6201,4.16c-0.5701,0.24-1.7301,0.71-2.3101,0.95
		c22.85,4.6001,47.53,0.1901,66.9-12.8999c16.12-10.38,28.22-26.4301,34.75-44.38c6.47-18.8201,6.6-39.78-0.03-58.5801
		c-6.15-18.4399-19.1801-34.13-35.2-44.9199c-8.03-4.66-16.39-9.42-25.63-11.03l0.87,1.0499c-2.54-0.7699-5.03-1.63-7.48-2.59
		C1448.215,1296.9327,1426.415,1298.4628,1407.385,1306.3228 M747.955,1351.2828c-20.35,1.8199-40.56,8.5499-56.91,21.01
		c-6.96,6.0199-12.97,13.2699-17.13,21.49c-3.1,3.24-4.52,7.6499-6.5,11.6c-7.21,18.53-10.94,38.8199-8.38,58.66
		c2.27,17.6899,11.76,34.1399,25.68,45.22c16.86,13.5,37.5,21.25,58.15,26.86c22.64,5.99,45.87,9.39,69.12,11.97
		c47.84,4.9401,95.97,6.3301,144.04,6.6901c26.67-0.29,53.37,0.51,80.01-0.99c33.83-1.26,67.6899-3.88,101.02-10.02
		c19.0599-3.7001,38.0199-8.4,55.99-15.89c18.1599-7.29,35.26-17.76,48.7999-32.01c2.23-2.46,4.9601-4.64,6.2001-7.8199
		c13-14.5801,21.4099-32.9301,25.4199-51.9801c2.61-12,4-24.5399,1.88-36.73c-1.5599-6.83-3.85-13.75-8.36-19.24
		c-6.73-7.62-15.4-13.5499-25.08-16.74c-9.98-3.8-20.65-5-31.01-7.25c-40.2001-4.0699-80.72-2.55-121.09-2.46
		c-11.28-0.2001-22.52,0.7799-33.79,0.63c-26.6801,0.2-53.35,0.14-80.03-0.01c-13.98-0.9401-28.02-0.49-42.01-1.0701
		c-10.95-1.22-22.01-0.2799-32.96-1.46c-13.7,0-27.32-1.54-41.03-1.48c-11.64-1.1-23.38-0.24-35-1.54
		c-14.68-0.2999-29.36-0.21-44.05-0.13C769.945,1349.5328,758.895,1349.7128,747.955,1351.2828 M572.675,1460.6729
		c-5.64,6.2699-7.28,15.0499-6.94,23.2599c-0.71,6.2401,1.32,12.54,4.43,17.9c7.05,11.7201,20.58,18.2201,33.9,19.3101
		c8.99,1,18.34-1.9401,24.99-8.11c8.22-7.5701,13.11-18.23,15.16-29.0901c0.5-2.75,1.22-5.62,0.3101-8.35
		c1.23-8.5599,0.3799-18.53-6.4901-24.63c-7.41-6.46-17.82-6.1899-27.05-6.0399
		C596.825,1444.2028,581.575,1449.1729,572.675,1460.6729 M1283.145,1452.2428c-6.27,5.55-6.52,14.71-5.5601,22.42
		c-1.09,6.4099,0.9401,12.89,2.92,18.9399c3.39,8.96,8.83,17.55,17.03,22.8201c6.24,4.1799,14.0499,5.5299,21.4399,4.6599
		c11.8201-1.1799,23.6-6.61,30.92-16.1699c4.45-5.92,7.37-13.39,6.4-20.89c0-4.92,0.23-10.0801-1.7101-14.7101
		c-2.9399-7.37-8.4099-13.71-15.36-17.5499c-8.63-5.52-19.12-7.36-29.23-6.86
		C1300.725,1444.6729,1289.905,1444.8928,1283.145,1452.2428z"/>
	<path fill="#A7939C" d="M749.015,988.4429c10.66,0.07,21.3-0.82,31.97-0.66c25-0.15,50.01,0.14,75.01-0.13
		c13.99,0.56,28,0.54,42,0.51c6-0.71,12,0.28,18.01,0.1c10.61-0.16,21.21,0.23,31.82,0.05c-0.26,0.41-0.78,1.24-1.04,1.65
		c-7.24,0.7401-14.52,0-21.78,0.2401c-8.67,0.23-17.32-0.29-25.98-0.65c-10.65-0.44-21.3101-0.19-31.97-0.38
		c-1.95,0.14-4.37-0.44-5.73,1.35c-7.31-1.69-15.09-1.45-22.45-0.21c-0.01-0.34-0.03-1.04-0.04-1.39
		c-28.84-0.92-57.7,0.37-86.54,0.54C751.475,989.2128,749.835,988.7029,749.015,988.4429z"/>
	<path fill="#A0D5F5" d="M752.295,989.4628c28.84-0.17,57.7-1.46,86.54-0.54c0.0099,0.35,0.03,1.05,0.04,1.39
		c-7.15,15.49-15.01,30.64-22.35,46.0299c-20.48,41.8301-40.71,83.77-61.36,125.51c-30.7,3.23-61.24,7.86-91.73,12.63
		c-0.5-2.54,0.92-4.79,1.94-6.98c18.43-37.6,36.69-75.27,55.16-112.84c1.55-3.29,3-6.63,4.59-9.9
		c8.97-17.89,17.86-35.8199,26.26-53.9899c0.15-0.33,0.46-0.9901,0.61-1.32L752.295,989.4628z"/>
	<path fill="#9FD5F5" d="M861.325,990.5229c1.36-1.79,3.78-1.21,5.73-1.35c10.66,0.19,21.32-0.06,31.97,0.38
		c-7.78,15.09-14.89,30.52-22.57,45.6599c-8.13,17.5-16.98,34.65-25.19,52.11c-9.53,18.91-18.46,38.1001-27.95,57.02
		c-1.85,3.54-3.54,7.17-4.74,10.99c-13.05,1.2001-26.11,2.26-39.12,3.8101c4.2599-9.29,8.92-18.4,13.09-27.74
		c9.35-17.54,17.36-35.73,26.39-53.4301c6.37-13.6699,13.3-27.0699,19.67-40.74
		C846.195,1021.6729,854.095,1006.2529,861.325,990.5229z"/>
	<path fill="#8496A7" d="M717.015,990.8528c11.6-1.36,23.31-1.5,34.98-1.4c-0.15,0.33-0.46,0.99-0.61,1.32
		c-7.44-0.15-14.94-0.5-22.29,0.93c-7.6,1.54-15.47,0.14-23,2.13c-4.31,1.09-8.79,0.5099-13.14,1.14
		c-6.4,1.01-12.75,2.58-19.25,2.69c3.35-2.27,7.57-1.74,11.34-2.71c5.18-1.42,10.62-1.22,15.84-2.47
		C706.195,991.2928,711.685,991.9529,717.015,990.8528z"/>
	<path fill="#5AA6C8" d="M838.875,990.3129c7.36-1.24,15.14-1.48,22.45,0.21c-7.23,15.73-15.13,31.15-22.72,46.7099
		c-7.32-1.24-14.74-0.04-22.08-0.89C823.865,1020.9529,831.725,1005.8029,838.875,990.3129z"/>
	<path fill="#5AA6C8" d="M876.455,1035.2128c7.68-15.1399,14.79-30.5699,22.57-45.6599c8.66,0.36,17.31,0.88,25.98,0.65
		c7.26-0.2401,14.54,0.5,21.78-0.2401c-0.11,7.01,0.42,14.03,0.03,21.04c-8.62,0.32-17.25,0.03-25.87,0.19
		c-7.65,0-15.34,3.79-19.63,10.2c-3.97,5.39-5.22,12.3499-4.31,18.91c-0.43-1.0601-0.87-2.1101-1.31-3.14
		c-5.56-0.4601-11.14,0.11-16.68-0.3301C877.785,1036.8628,876.935,1036.3228,876.455,1035.2128z"/>
	<path fill="#416877" d="M946.785,989.9628c4.28-0.98,8.7-0.3199,13.05-0.49c-0.08,7.17-0.25,14.36,0.11,21.53
		c9.7,0.44,19.41-0.14,29.1,0.28c12.67,1,22.98,13.25,21.9,25.9199c-0.32,9.3501-6.53,18.05-15.18,21.54
		c-4.93,2.3199-10.5,1.8199-15.78,1.84c-18.67,0.01-37.34-0.0399-56,0.03c-4.74,0.13-9.61-0.42-13.83-2.6899
		c-6.86-3.41-11.56-10.2101-13.15-17.62c-0.91-6.5601,0.34-13.52,4.31-18.91c4.29-6.41,11.98-10.2,19.63-10.2
		c8.62-0.16,17.25,0.13,25.87-0.19C947.205,1003.9929,946.675,996.9728,946.785,989.9628z"/>
	<path fill="#5AA6C8" d="M959.835,989.4728c70.05-0.01,140.1199-0.82,210.18,0.14c8.73,0.12,17.28,2.18,26.04,1.92
		c28.22,2.48,56.6599,7.27,82.8899,18.41c0.4401,0.31,1.3201,0.93,1.77,1.25c6.98,1.94,13,6.2,19.16,9.87
		c21.17,13.1899,36.98,33.09,50.37,53.7699c9.39,14.9601,17.58,30.61,25.7,46.29c9.67,19.8,19.4701,39.58,28.52,59.7
		c2.72,6.5901,6.61,12.7001,8.5901,19.6001c-7.8101,0.9199-14.8401-3.26-22.1901-5.04c-6.52-1.13-12.77-3.42-19.28-4.64
		c-6.2799-1.1-12.25-3.4301-18.5399-4.46c-10.29-1.77-20.25-4.9401-30.53-6.74c-5.05-1.7201-10.52-0.6901-15.5601-2.29
		c1.63-0.09,3.28-0.22,4.9401-0.33c-4.0801-9.9301-9.28-19.3301-13.79-29.05c-7.28-14.48-14.87-28.85-23.5699-42.54
		c-5.9-8.3099-11.24-17.15-18.73-24.1799c-11.3201-12.62-25.7001-22.4301-41.53-28.4701c-22.67-9.0599-47.12-12.36-71.3201-14.1
		c-43.9299-2.87-88.02-1.98-132.0099-1.38c1.08-12.6699-9.23-24.9199-21.9-25.9199c-9.69-0.42-19.4,0.16-29.1-0.28
		C959.585,1003.8329,959.755,996.6429,959.835,989.4728z"/>
	<path fill="#5AA6C8" d="M729.095,991.7029c7.35-1.43,14.85-1.08,22.29-0.93c-8.4,18.17-17.29,36.0999-26.26,53.9899
		c-12.81,1.75-25.13,6.23-36.77,11.75c-11.41,5.53-21.87,13.03-30.69,22.14c-3.96,5.34-9.14,9.63-12.92,15.12
		c-20.54,28.5-34.92,60.76-49.9,92.37c-9.65,1.91-19.3,3.83-28.95,5.7c-7.19,2.22-14.86,2.4501-21.86,5.29
		c-8.67,3.67-18.24,3.84-27.38,5.5599c-6.0699,1.51-12.0999,3.16-18.1799,4.62c-1.21,0.4401-2.29-0.3899-3.34-0.7999
		c17.43-38.98,35.3299-77.8201,56.0799-115.15c13.65-24.05,29.65-47.4399,51.79-64.4301c16.69-13.0499,36.77-20.8099,56.98-26.5099
		c4.65-0.55,9-2.7,13.72-2.76c6.5-0.11,12.85-1.68,19.25-2.69c4.35-0.63,8.83-0.05,13.14-1.14
		C713.625,991.8428,721.495,993.2429,729.095,991.7029z"/>
	<path fill="#4FCAF4" d="M851.265,1087.3228c8.21-17.46,17.06-34.61,25.19-52.11c0.48,1.11,1.33,1.65,2.56,1.62
		c5.54,0.4401,11.12-0.13,16.68,0.3301c0.44,1.0299,0.88,2.08,1.31,3.14c1.59,7.4099,6.29,14.21,13.15,17.62
		c4.22,2.2699,9.09,2.8199,13.83,2.6899c18.66-0.0699,37.33-0.02,56-0.03c5.28-0.02,10.85,0.48,15.78-1.84
		c8.65-3.49,14.86-12.1899,15.18-21.54c43.9899-0.6,88.08-1.49,132.0099,1.38c24.2001,1.74,48.65,5.04,71.3201,14.1
		c15.83,6.04,30.21,15.8501,41.53,28.4701c7.49,7.0299,12.83,15.87,18.73,24.1799c8.7,13.6901,16.2899,28.0601,23.5699,42.54
		c4.51,9.72,9.71,19.12,13.79,29.05c-1.66,0.11-3.3101,0.24-4.9401,0.33c-8.58-3.25-17.86-3.6901-26.7799-5.5601
		c-3.17-1.2899-3.9-5.1-5.17-7.9099c-2.79-8.27-6.88-16.02-11.63-23.3201c-13.8-20.49-33.64-37.35-57.0601-45.6599
		c-8.96-3.89-18.6599-5.78-28.2999-6.9801c-19.85-1.7-40.4301-0.4199-58.97,7.38c-7.67,2.8301-14.6001,7.1901-21.5701,11.37
		c-11.74,7.6001-21.89,17.5701-30.23,28.77c-3.36,4.0701-5.42,9.0701-8.92,13.01c-5.0499,1.05-10.2699-0.04-15.38,0.0601
		c-28.6299-0.26-57.27-1.13-85.91-0.1801c-16.69-0.1799-33.34,0.99-50.02,1.48c-10.02,0.47-20.05,0.55-30.03,1.61
		c-19.5,0.88-38.95,2.51-58.41,4.01c1.2-3.8199,2.89-7.45,4.74-10.99C832.805,1125.4229,841.735,1106.2328,851.265,1087.3228z"/>
	<path fill="#4FCAF4" d="M755.165,1161.8528c20.65-41.74,40.88-83.6799,61.36-125.51c7.34,0.85,14.7599-0.35,22.08,0.89
		c-6.37,13.67-13.3,27.0701-19.67,40.74c-9.03,17.7001-17.04,35.89-26.39,53.4301c-4.17,9.34-8.83,18.45-13.09,27.74
		C771.345,1159.9128,763.265,1160.9828,755.165,1161.8528z"/>
	<path fill="#4FCAF4" d="M688.355,1056.5128c11.64-5.52,23.96-10,36.77-11.75c-1.59,3.27-3.04,6.61-4.59,9.9
		c-18.47,37.5699-36.73,75.24-55.16,112.84c-1.02,2.1899-2.44,4.4399-1.94,6.98c-6.08,1.5-12.4,1.42-18.5,2.8
		c-10.14,2.7-20.63,3.6499-30.89,5.77c-6.38,1.1399-12.73,2.5199-19.2,3.09c14.98-31.61,29.36-63.87,49.9-92.37
		c3.78-5.49,8.96-9.78,12.92-15.12C666.485,1069.5428,676.945,1062.0428,688.355,1056.5128z"/>
	<path fill="#79A3BC" d="M1119.045,1095.2028c18.5399-7.7999,39.12-9.08,58.97-7.38c9.64,1.2001,19.34,3.0901,28.2999,6.9801
		c23.42,8.3099,43.26,25.1699,57.0601,45.6599c4.75,7.3,8.84,15.05,11.63,23.3201c1.27,2.8099,2,6.62,5.17,7.9099
		c8.9199,1.87,18.2,2.3101,26.7799,5.5601c5.04,1.6,10.51,0.5699,15.5601,2.29c10.28,1.7999,20.24,4.97,30.53,6.74
		c6.2899,1.0299,12.26,3.36,18.5399,4.46c6.51,1.22,12.76,3.51,19.28,4.64c7.35,1.78,14.38,5.96,22.1901,5.04l0.8099-0.05
		c-0.1899,1.04-0.35,2.1-0.49,3.1801c-2.67-1.05-5.52-1.39-8.36-1.3201c-3.35,0.1901-6.4301-1.35-9.6901-1.6799
		c-12.5199-0.6101-24.89-2.67-37.4199-3.1201c-7.36-1.1899-14.8201-1.5199-22.25-1.96c-8.52-1.1799-17.13-1.62-25.7201-2
		c-9.2699-1.26-18.6299-1.6699-27.98-2.0499c-9.96-1.29-20.01-1.52-30.02-2.1101c-6.5699-1.46-13.33-0.46-19.95-1.3099
		c-4.3-0.63-8.66-0.3201-12.96-0.65c-8.79-1.64-17.8101-0.37-26.63-1.78c-6.78-0.8999-13.61-0.99-20.4-1.6799
		c-7.25-0.7101-14.58,0.39-21.77-0.9401c-6.38-0.9199-12.84-0.21-19.25-0.7c-13.62-1.0601-27.3099-0.39-40.9399-1.22
		c-8.3-0.86-16.65-0.4701-24.9601-1.05c-2.61-0.22-5.22-0.08-7.7899,0.38c-5.77,0.3199-11.55-0.12-17.3101-0.3099
		c-4.71,0.5499-9.39-0.03-14.0699-0.3301c-42.65-0.2-85.3-0.3199-127.95-0.1c-7.65,0.21-15.32-0.3-22.94,0.61
		c-12.21,0.21-24.44,0.12-36.65,0.37c-11.31,1.78-22.83,0.1901-34.17,1.6c-7.08,0.4601-14.21-0.0699-21.28,0.53
		c-8.24,1.4401-16.64,0.3201-24.92,1.34c-4.98,0.63-10.04-0.0499-15,0.78c-6.95,1.24-14.06,0.1901-21.03,1.3101
		c-5.34,0.25-10.68,0.2799-15.96,1.25c-7.58-0.0901-15.07,1.09-22.64,1.08c-10.06,1.63-20.33,1.17-30.4,2.77
		c-6.11,0.39-12.18,1.15-18.29,1.3199c-5.17,1.15-10.48,0.92-15.7,1.62c-12.33,1.29-24.67,2.54-36.99,3.9501
		c-4.02,0.14-7.99,0.6599-11.84,1.85c-25.37,2.35-50.72,5.49-75.86,9.83c0.02-1.25,0.04-2.48,0.07-3.7c0.19,0.1,0.59,0.29,0.78,0.38
		c1.05,0.41,2.13,1.24,3.34,0.7999c6.08-1.46,12.11-3.11,18.1799-4.62c9.14-1.72,18.71-1.8899,27.38-5.5599
		c7-2.84,14.67-3.0701,21.86-5.29c9.65-1.87,19.3-3.7899,28.95-5.7c6.47-0.5701,12.82-1.9501,19.2-3.09
		c10.26-2.1201,20.75-3.0701,30.89-5.77c6.1-1.38,12.42-1.3,18.5-2.8c30.49-4.77,61.03-9.4,91.73-12.63
		c8.1-0.87,16.18-1.9399,24.29-2.71c13.0099-1.55,26.07-2.61,39.12-3.8101c19.46-1.5,38.91-3.13,58.41-4.01
		c9.98-1.0599,20.01-1.14,30.03-1.61c16.68-0.49,33.33-1.6599,50.02-1.48c28.64-0.95,57.28-0.08,85.91,0.1801
		c5.1101-0.1001,10.3301,0.99,15.38-0.0601c3.5-3.9399,5.5601-8.9399,8.92-13.01c8.34-11.2,18.49-21.1699,30.23-28.77
		C1104.4449,1102.3928,1111.375,1098.0328,1119.045,1095.2028 M1148.045,1107.6628c-8.54,0.7999-17.4,2.5599-24.62,7.4099
		c-9.5,3.9301-18.05,9.9-25.8401,16.55c-5.63,5.41-11.5299,10.74-15.36,17.65c6.4,2.33,13.36,0.28,19.9501,1.62
		c4.85,1.11,9.87,0.1799,14.7699,0.98c4.9801,0.8199,10.0801,0.17,15.04,1.26c10.6901,0.92,21.4,1.36,32.0601,2.75
		c4.62,0.75,9.34,0.33,13.95,1.25c6.95,1.21,13.9,2.54,20.97,2.79c7.74,0.3099,15.3401,1.86,23.04,2.5399
		c5.4399,0.36,10.52,2.7101,15.97,3.03c6,0.35,11.77,2.67,17.86,2.0699c-0.77-4.35-3.9099-7.58-6.0699-11.25
		c-5.28-7.97-9.9401-16.5499-17.22-22.9199c-4.24-4.86-10.2101-7.5-15-11.66c-4.67-2.03-9.2201-4.29-13.75-6.59
		C1186.395,1107.5627,1166.825,1104.4528,1148.045,1107.6628z"/>
	<path fill="#4FCAF4" d="M1148.045,1107.6628c18.7799-3.2101,38.35-0.1001,55.75,7.48c4.5299,2.2999,9.08,4.5599,13.75,6.59
		c4.7899,4.16,10.76,6.8,15,11.66c7.2799,6.37,11.9399,14.95,17.22,22.9199c2.16,3.67,5.2999,6.9,6.0699,11.25
		c-6.09,0.6001-11.86-1.72-17.86-2.0699c-5.45-0.3199-10.53-2.67-15.97-3.03c-7.7-0.6799-15.3-2.23-23.04-2.5399
		c-7.0699-0.25-14.02-1.5801-20.97-2.79c-4.61-0.92-9.33-0.5-13.95-1.25c-10.66-1.39-21.37-1.83-32.0601-2.75
		c-4.96-1.09-10.0599-0.4401-15.04-1.26c-4.8999-0.8-9.9199,0.13-14.7699-0.98c-6.5901-1.34-13.55,0.71-19.9501-1.62
		c3.8301-6.91,9.73-12.24,15.36-17.65c7.79-6.65,16.3401-12.62,25.8401-16.55
		C1130.645,1110.2228,1139.505,1108.4628,1148.045,1107.6628z"/>
	<path fill="#416877" d="M1551.995,1136.8928c9.35-0.48,18.85-2.48,28.13-0.22c10.0599,2.13,19.97,7.75,25.05,16.98
		c3.5199,5.8199,2.5299,12.87,3.0299,19.36c-0.26,8.84,1.27,18.65-3.9399,26.4299c-5.73,9.0801-16.0801,13.79-26.23,15.99
		c-12,0.75-24.02,0.3-36.03,0.42c-15.35-0.08-30.7,0.14-46.04-0.08c-10.83-0.0601-21.84-5.86-26.5499-15.87
		c-3.9701-8.8-2.62-18.6-2.87-27.9401c-0.2301-6.2999,1.6599-12.72,5.7799-17.5599c6.87-8.3401,17.53-12.74,28.11-13.74
		C1517.645,1139.6628,1534.8051,1138.1428,1551.995,1136.8928z"/>
	<path fill="#416877" d="M303.925,1163.9128c8.13-9.3401,20.93-13.42,33.03-13.3401c16.65,1.5601,33.37,2.28,50,4.1001
		c9.94,1.1399,20.28-0.14,29.83,3.47c8.2,2.84,15.78,8.3199,19.86,16.12c3.31,6.38,2.69,13.79,2.42,20.73
		c-0.4,5.3,0.07,10.73-1.34,15.92c-1.83,5.74-5.23,11.08-10.3,14.48c-6.06,4.2-13.57,5.7-20.85,5.58
		c-19.83-0.47-39.67-0.08-59.51-0.21c-8.76-0.2001-17.83,0.9299-26.22-2.22c-10.78-3.41-21.29-11.8401-22.93-23.6101
		c-0.61-7.6399-0.06-15.3199-0.28-22.98C297.315,1175.4128,299.535,1168.8029,303.925,1163.9128z"/>
	<path fill="#B48284" d="M1057.285,1180.3628c2.5699-0.46,5.1799-0.6,7.7899-0.38c8.3101,0.58,16.66,0.1901,24.9601,1.05
		c13.63,0.83,27.3199,0.1599,40.9399,1.22c6.41,0.49,12.87-0.22,19.25,0.7c7.1901,1.3301,14.52,0.23,21.77,0.9401
		c6.79,0.6899,13.62,0.78,20.4,1.6799c-3.3201,1.3101-6.91,0.63-10.35,0.5801c-6.7101-0.4501-13.42-0.4301-20.12-0.75
		c-11.0801-1.6-22.3201-0.3401-33.4501-1.0901c-6.4399-1.2899-13.0499-0.25-19.5-1.47c-14.28-0.6-28.59,0-42.87-0.47
		c-8.61-1.4301-17.34-0.26-26.01-0.83C1045.8051,1180.8127,1051.725,1182.1428,1057.285,1180.3628z"/>
	<path fill="#CF6D60" d="M859.325,1200.6228c13.2-0.87,26.43-0.35,39.65-0.63c40.66-0.02,81.31-0.12,121.97,0.09
		c5.42,0.17,10.8799-0.22,16.29,0.4401c6.66,0.9099,13.4,0.08,20.09,0.74c15.51,1.4,31.14,0.1899,46.67,1.58
		c5.2,0.5701,10.46-0.14,15.65,0.61c7.4199,1.0701,14.9399,0.23,22.39,0.8101c4.63,0.6899,9.3199,0.89,14,0.8199
		c6.33-0.2,12.5499,1.4,18.89,0.99c6.08-0.4399,12.0299,1.26,18.1,1.01c5.34-0.08,10.6,1.2101,15.96,0.9601
		c4.03-0.14,7.98,0.87,12.01,0.97c6.35-0.01,12.63,1.3099,19,1.03c11.03,0.62,21.9399,2.72,32.99,3.13
		c23.86,3.1699,47.8,6.47,71.08,12.7c6.9901,2.63,14.4401,4.1899,20.9401,8.01c4.26,2.11,8.54,4.92,10.86,9.2
		c0.1901,2.7201,0.73,6.16-1.58,8.1901c-8.4501,9.1799-20.79,12.9199-32.3201,16.58c-8.96,2.27-17.6,5.55-26.24,8.79
		c-6.62,3.33-13.84,5.26-20.34,8.84c-4.15,2.4401-8.0701,5.25-12.23,7.6801c-4.27,2.1499-5.61,7.09-8.35,10.6799
		c-3.8601,7.36,5.1499,14.89,1.1799,22.22c-2.8199,2.8501-7.23,3.04-10.9,4.15c-4.9099,1.4301-10.01,1.62-15.0699,1.9601
		c-12.03,2.11-24.12-0.67-36.04-2.2301c-13.1799-2.76-26.59-4.1699-39.96-5.7899c-5.01-0.37-9.97-1.4601-15.01-1.26
		c-5.04,0.15-9.97-1.3101-15.01-0.97c-6.04,0.4299-11.95-1.37-17.98-0.9701c-27.3201-0.22-54.64-0.14-81.96-0.0599
		c-7.3501,0.13-14.7401-0.35-22.03,0.87c-8.34,0.25-16.7,0.11-25.04,0.23c-4.34,0.28-8.64,1.17-13,0.89
		c-5.05-0.35-9.96,1.3199-15.01,1.04c-9.34-0.25-18.77,0.87-28.05-0.67c-3.62-0.45-7.29,0.04-10.89-0.59
		c-6.98-1.3401-14.14-0.16-21.12-1.55c-8.35,0.24-16.58-1.63-24.94-1.13c-6.01,0.38-11.91-1.03-17.9-0.96
		c-6.37-0.3201-12.78,0.37-19.09-0.79c-26.66-0.15-53.43-0.92-80.01,1.63c-10.27-0.1801-20.39,1.92-30.61,2.54
		c-7.74,2.2899-16.01,1.74-23.7,4.26c-4.43,1.46-9.13,1.62-13.65,2.6799c-13.02,3.41-26.74,4.8301-40.08,2.64
		c-4.73-0.75-9.86-1.25-13.81-4.1899c-2.44-2.39,0.38-5.7101,1.62-7.99c3.69-4.54,6.5-9.9401,7.07-15.8201
		c-0.85-5.98-2.8-12.28-7.57-16.29c-3.63-3.0499-6.14-7.2999-10.36-9.62c-10.13-7.9399-21.61-13.84-32.8-20.08
		c-6.21-2.6-12.2401-5.6-18.15-8.8199c-3.73-2.1101-7.15-5.39-8.48-9.52c0.33-4.8,4.93-7.5601,8.86-9.35
		c9.42-4.2101,19.53-6.53,29.59-8.63c10.3-2.6901,20.98-3.2001,31.39-5.27c10.92-0.7001,21.63-3.17,32.56-3.76
		c10.32-1.39,20.67-2.39,31.07-2.9301c6.38-0.4399,12.67-2.0399,19.1-1.71c12.64-1.15,25.31-2.13,37.98-3.17
		c6.8-1.46,13.8-0.08,20.63-1.26c5.42-0.9099,10.92-0.1899,16.37-0.6899c12.92-1.84,26.06,0.0599,39-1.67
		C848.435,1200.9528,853.895,1201.0728,859.325,1200.6228z"/>
	<path fill="#A8ADBD" d="M1469.415,1199.9028c4.71,10.01,15.72,15.8099,26.5499,15.87c15.3401,0.22,30.6901,0,46.04,0.08
		c12.01-0.12,24.03,0.33,36.03-0.42l-1.1801,0.67c-24.7,0.62-49.4299,0.03-74.14,0.3c-2.48,4.5599-4.5699,9.3099-6.9399,13.9199
		c-3.9301-2.1599-7.97-4.13-12.2001-5.62c-5.5699-1.87-10.62-5.0299-16.26-6.7
		C1467.985,1211.9528,1470.785,1206.0627,1469.415,1199.9028z"/>
	<path fill="#A8ADBD" d="M427.425,1225.3928c5.07-3.4,8.47-8.74,10.3-14.48c-2.2,6.35,0.6,12.85,2.88,18.75
		c-9.22,4.2799-18.12,9.24-26.37,15.1899c-3.1-4.3099-5.47-9.0699-7.66-13.88
		C413.855,1231.0928,421.365,1229.5928,427.425,1225.3928z"/>
	<path fill="#E2925F" d="M465.025,1302.2128c18.18-4.83,37.92-3.61,55.35,3.49c20.54,7.92,37.33,24.3,46.95,43.98
		c7.38,16.3201,10.57,34.8701,7.14,52.5801c-5.05,34.1699-32.62,63.4199-66.1499,71.22c-4.99,1.59-10.29,1.03-15.36,2.14
		c-16.59,1.36-33.43-2.5699-47.99-10.54c-15.88-8.51-28.81-22.21-36.78-38.34c-9.99-19.88-11.75-43.6-5.32-64.84
		c7.22-24.3301,25.7-45.02,48.97-55.0801C456.345,1305.6028,460.505,1303.4028,465.025,1302.2128 M435.165,1324.1328
		c-6.91,4.79-11.8,11.74-16.59,18.51c-11.48,19.5699-12.66,44.95-2.62,65.36c3.44,7.13,8.43,13.41,13.72,19.25
		c7.49,6.24,15.6,12.1799,24.96,15.27c1.85,0.6,3.9,1.84,5.8,0.62c13.45,6.51,29.18,8,43.58,3.96
		c15.02-4.12,28.35-14.23,36.28-27.65c10.83-17.5,11.67-40.5299,2.55-58.9299l0.69-1.12c-1.6-7.9301-5.87-15.0701-10.14-21.85
		c-11.4901-15.2201-29.22-26.1901-48.43-27.7201C467.325,1307.4828,448.985,1313.0028,435.165,1324.1328z"/>
	<path fill="#E2925F" d="M1407.385,1306.3228c19.03-7.86,40.83-9.39,60.54-3.1c2.45,0.96,4.9399,1.8201,7.48,2.59
		c31.89,12.3601,54.62,44.91,55.0599,79.14c0.9301,21.8101-6.9399,43.74-21.1899,60.23c-17.78,20.9601-45.78,32.78-73.22,30.4401
		c-7.25-1.17-14.7101-1.4301-21.6201-4.16c-20.84-6.61-38.8199-21.5599-49.21-40.78c-4.91-7.74-7.62-16.6699-9.53-25.5599
		c-5.11-23.64,0.62-49.17,14.67-68.74c4.36-6.83,10.63-12.08,16.4401-17.61
		C1392.985,1313.6028,1400.3051,1310.0627,1407.385,1306.3228 M1410.4349,1323.4028c-10.21,6.9099-17.4299,17.5699-22.0199,28.88
		c-0.61,1.95-2.1001,4.26-0.54,6.1699c-4.42,8.49-7.21,17.8401-7.29,27.4601c-0.74,19.14,8.23,38.36,23.38,50.08
		c13.22,10.84,31.2001,15.2,48.01,12.6c9.64-1.34,18.48-5.8199,26.55-11.08c-0.1,0.6799-0.3,2.04-0.4,2.71
		c1.72-0.12,3.6,0.01,5.16-0.9299c6.3999-4.12,13.09-8.05,18.14-13.87c12.9399-13.16,20.08-31.9801,18.8199-50.4301
		c0.37-11.36-3.8199-22.21-9.11-32.0601c-8.88-14.5-22.91-26.0699-39.41-30.6399
		C1451.105,1305.9028,1427.455,1310.0928,1410.4349,1323.4028z"/>
	<path fill="#B9503F" d="M419.515,1323.4728c9.64-8.1899,20.83-15.16,33.22-18.12l-0.9,1.47
		c-23.27,10.0601-41.75,30.75-48.97,55.0801c-6.43,21.24-4.67,44.96,5.32,64.84c7.97,16.13,20.9,29.83,36.78,38.34
		c14.56,7.9701,31.4,11.9,47.99,10.54c1.01,0.25,2.03,0.55,3.04,0.9c-19.47,3.97-40.28,1.4099-58.03-7.5701
		c-14.28-7.23-26.58-18.2799-35.03-31.9099c-12.68-19.5-16.23-44.0901-11.48-66.6901
		C395.625,1352.3228,405.395,1335.5128,419.515,1323.4728z"/>
	<path fill="#B9503F" d="M1474.535,1304.7628c9.24,1.61,17.6,6.37,25.63,11.03c16.0199,10.7899,29.0499,26.48,35.2,44.9199
		c6.63,18.8,6.5,39.76,0.03,58.5801c-6.53,17.95-18.63,34-34.75,44.38c-19.37,13.09-44.05,17.5-66.9,12.8999
		c0.58-0.24,1.74-0.71,2.3101-0.95c27.4399,2.34,55.4399-9.48,73.22-30.4401c14.25-16.49,22.12-38.4199,21.1899-60.23
		c-0.4399-34.23-23.1699-66.7799-55.0599-79.14L1474.535,1304.7628z"/>
	<path fill="#E3705E" d="M435.165,1324.1328c13.82-11.13,32.16-16.65,49.8-14.3c19.21,1.53,36.9399,12.5,48.43,27.7201
		c4.27,6.7799,8.54,13.9199,10.14,21.85l-0.69,1.12c-7.46-15.4301-21.64-27.4401-38.14-32.13c-15.34-4.5-32.4-2.8-46.47,4.8199
		c-14.61,7.8101-25.89,21.75-30.26,37.76c-4.87,17.51-1.78,37.27,8.92,52.0701c5.91,8.6,14.14,15.58,23.54,20.1
		c-1.9,1.22-3.95-0.02-5.8-0.62c-9.36-3.0901-17.47-9.03-24.96-15.27c-5.29-5.84-10.28-12.12-13.72-19.25
		c-10.04-20.41-8.86-45.79,2.62-65.36C423.365,1335.8728,428.255,1328.9229,435.165,1324.1328z"/>
	<path fill="#E3705E" d="M1410.4349,1323.4028c17.02-13.3101,40.67-17.5,61.29-11.11c16.5,4.5699,30.53,16.1399,39.41,30.6399
		c5.29,9.8501,9.48,20.7001,9.11,32.0601c1.26,18.45-5.88,37.27-18.8199,50.4301c-5.05,5.8199-11.7401,9.75-18.14,13.87
		c-1.5601,0.9399-3.4401,0.8099-5.16,0.9299c0.1-0.6699,0.3-2.03,0.4-2.71c11.89-8.4,20.37-21.34,23.78-35.46
		c4.1-17.4401,0.5099-36.67-10.3401-51.05c-11.21-15.41-29.9299-25.04-49-25.1c-22.51-0.5601-44.72,12.5699-55.09,32.5499
		c-1.5601-1.9099-0.0699-4.22,0.54-6.1699C1393.005,1340.9728,1400.225,1330.3127,1410.4349,1323.4028z"/>
	<path fill="#FECF67" d="M458.235,1333.2128c14.07-7.62,31.13-9.3199,46.47-4.8199c16.5,4.6899,30.68,16.7,38.14,32.13
		c9.12,18.4,8.28,41.4299-2.55,58.9299c-7.93,13.42-21.26,23.53-36.28,27.65c-14.4,4.04-30.13,2.55-43.58-3.96
		c-9.4-4.52-17.63-11.5-23.54-20.1c-10.7-14.8-13.79-34.5601-8.92-52.0701C432.345,1354.9628,443.625,1341.0228,458.235,1333.2128
		 M485.075,1333.0627c-5.37,0.77-10.26,3.3501-14.56,6.5601c-4.21,3.17-6.64,7.96-9.61,12.1801
		c-1.65,5.8199-3.28,12.0599-1.77,18.11c1.9,9.87,7.79,19.7,17.41,23.6699c7.29,4.2101,16.2,3.66,24.07,1.6901
		c5.38-2.3101,11.22-5.48,13.5399-11.1901c6.23-8.2,7.78-19.49,5.07-29.2999c-1-4.75-4.21-8.42-6.76-12.37
		c-2.0699-2.8501-5.2899-4.39-8.4099-5.79C498.325,1333.5728,491.545,1331.6128,485.075,1333.0627z"/>
	<path fill="#FECF67" d="M1387.875,1358.4528c10.37-19.98,32.58-33.11,55.09-32.5499c19.0701,0.0599,37.79,9.6899,49,25.1
		c10.85,14.38,14.4401,33.61,10.3401,51.05c-3.41,14.12-11.89,27.0599-23.78,35.46c-8.0701,5.26-16.91,9.74-26.55,11.08
		c-16.8099,2.6-34.79-1.76-48.01-12.6c-15.15-11.72-24.12-30.9399-23.38-50.08
		C1380.665,1376.2928,1383.455,1366.9427,1387.875,1358.4528 M1426.975,1335.0529c-4.22,1.7999-7.4199,5.1599-10.5699,8.37
		c-6.15,6.96-8.0701,16.59-7.0801,25.6499c0.1001,6.8,4.5701,12.2201,7.7101,17.89c2.7799,3.37,6.7999,5.42,10.61,7.4501
		c3.7999,2.0699,8.27,1.7899,12.4,2.7699c4.58-0.73,9.36-1.0199,13.4199-3.5499c12.76-4.85,19.14-19.62,17.88-32.58
		c-1.71-11.0701-8.49-21.9301-19.14-26.26C1444.265,1331.0828,1434.9449,1331.8628,1426.975,1335.0529z"/>
	<path fill="#FAE0BB" d="M1426.975,1335.0529c7.97-3.1901,17.29-3.9701,25.23-0.26c10.65,4.33,17.4301,15.1899,19.14,26.26
		c1.26,12.96-5.12,27.73-17.88,32.58c-4.0599,2.53-8.84,2.8199-13.4199,3.5499c-4.13-0.98-8.6001-0.7-12.4-2.7699
		c-3.8101-2.03-7.8301-4.0801-10.61-7.4501c-3.14-5.6699-7.61-11.09-7.7101-17.89c-0.99-9.0599,0.9301-18.6899,7.0801-25.6499
		C1419.5551,1340.2128,1422.755,1336.8528,1426.975,1335.0529z"/>
	<path fill="#FBE1BC" d="M485.075,1333.0627c6.47-1.45,13.25,0.51,18.98,3.5601c3.12,1.4,6.34,2.9399,8.4099,5.79
		c2.55,3.95,5.76,7.62,6.76,12.37c2.71,9.8099,1.16,21.1-5.07,29.2999c-2.3199,5.7101-8.1599,8.88-13.5399,11.1901
		c-7.87,1.97-16.78,2.52-24.07-1.6901c-9.62-3.97-15.51-13.7999-17.41-23.6699c-1.51-6.05,0.12-12.29,1.77-18.11
		c2.97-4.2201,5.4-9.01,9.61-12.1801C474.815,1336.4128,479.705,1333.8328,485.075,1333.0627z"/>
	<path fill="#5E626D" d="M747.955,1351.2828c10.94-1.5701,21.99-1.75,32.98-2.6901c14.69-0.08,29.37-0.1699,44.05,0.13
		c11.62,1.3,23.36,0.4401,35,1.54c13.71-0.0601,27.33,1.48,41.03,1.48c10.95,1.1801,22.01,0.24,32.96,1.46
		c13.99,0.5801,28.03,0.13,42.01,1.0701c26.68,0.15,53.35,0.21,80.03,0.01c11.27,0.1499,22.51-0.8301,33.79-0.63
		c40.37-0.0901,80.8899-1.61,121.09,2.46c10.36,2.25,21.03,3.45,31.01,7.25c9.6799,3.1901,18.35,9.12,25.08,16.74
		c4.51,5.49,6.8,12.41,8.36,19.24c2.12,12.1901,0.73,24.73-1.88,36.73c-4.01,19.05-12.4199,37.4-25.4199,51.9801
		c-6.88,6.7699-13.99,13.2899-21.6001,19.25c-15.2,10.3899-32.3099,17.7-49.8899,22.99c-8.1001,3.21-16.8501,3.9099-25.1901,6.23
		c-34.54,7.4-69.84,10.36-105.0599,11.9099c-8.8201-0.1899-17.5601,1.3101-26.3701,1.1101c-30.32,0.25-60.64,0.1799-90.95-0.02
		c-9.14,0.1799-18.2-1.2101-27.33-1.0601c-13.85-0.49-27.73-0.5699-41.5099-1.95c-13.97-0.28-27.82-2.13-41.7401-3.1
		c-8.81-1.41-17.74-1.7301-26.5099-3.29c-13.2-1.3-26.02-4.78-39.04-7.09c-8.57-2.78-17.42-4.7201-25.8-8.04
		c-5.63-2.65-11.85-3.79-17.27-6.9c-17.17-8.11-33.35-20.59-41.34-38.27c-8.17-16.96-7.98-36.6-4.67-54.75
		c1.59-10.9399,5.84-21.1899,10.14-31.2899c4.16-8.2201,10.17-15.4701,17.13-21.49
		C707.395,1359.8328,727.605,1353.1028,747.955,1351.2828 M770.335,1364.4327c-7.16,0.41-14.31,0.9901-21.44,1.8201
		c-16.73,2.17-34.2,6.03-47.52,17.03c-13.14,11.88-18.58,29.71-21.01,46.74c-3.11,17.9399-0.31,37.6799,11.21,52.27
		c12.22,15.49,30.95,23.8099,49.16,30.0599c21.52,6.96,43.89,10.88,66.29,13.75c27.17,3.48,54.53,5.15,81.87,6.54
		c8.7-0.02,17.35,1.1899,26.06,0.97c65.69,1.2,131.67,2.13,197.02-5.74c20.47-2.63,40.87-6.3101,60.66-12.27
		c18.27-5.7,36.4-13.29,51.22-25.66c14.01-11.1599,24.15-26.7999,29.37-43.87c3.52-11.3199,5.87-23.1499,5.5801-35.0399
		c-0.4-7.6001-2.2401-15.5901-7.42-21.42c-5.54-7.12-14.27-10.61-22.6-13.28c-11.01-3.37-22.5-4.75-33.91-5.9
		c-32.92-2.58-65.97-1.75-98.95-1.49c-8.9801-0.0299-17.92,0.76-26.89,0.65c-29.03,0.0801-58.05,0.28-87.0701,0.05
		c-28.35,0.0699-56.65-1.8101-84.98-2.47c-10.92-0.5601-21.86-0.4801-32.74-1.5901
		C832.955,1364.8828,801.635,1362.8828,770.335,1364.4327z"/>
	<path fill="#787E8A" d="M770.335,1364.4327c31.3-1.5499,62.62,0.4501,93.91,1.15c10.88,1.11,21.82,1.03,32.74,1.5901
		c28.33,0.6599,56.63,2.5399,84.98,2.47c29.02,0.23,58.04,0.03,87.0701-0.05c8.97,0.11,17.9099-0.6799,26.89-0.65
		c32.98-0.26,66.0299-1.09,98.95,1.49c11.41,1.15,22.9,2.53,33.91,5.9c8.33,2.67,17.0599,6.16,22.6,13.28
		c5.1799,5.83,7.02,13.8199,7.42,21.42c0.2899,11.89-2.0601,23.72-5.5801,35.0399c-5.22,17.0701-15.36,32.7101-29.37,43.87
		c-14.8199,12.37-32.95,19.9601-51.22,25.66c-19.79,5.96-40.1901,9.64-60.66,12.27c-65.35,7.87-131.33,6.9399-197.02,5.74
		c-8.71,0.22-17.36-0.99-26.06-0.97c-27.34-1.39-54.7-3.0601-81.87-6.54c-22.4-2.87-44.77-6.79-66.29-13.75
		c-18.21-6.25-36.94-14.5699-49.16-30.0599c-11.52-14.5901-14.32-34.3301-11.21-52.27c2.43-17.03,7.87-34.86,21.01-46.74
		c13.32-11,30.79-14.86,47.52-17.03C756.025,1365.4229,763.175,1364.8428,770.335,1364.4327 M788.075,1373.8228
		c-8.68,44.1001-16.96,88.29-25.41,132.4401c12.81,3.99,26,6.76,39.28,8.66c6.63-34.9801,13.43-69.92,20.08-104.89
		c2.08-12.2101,5.0099-24.28,6.77-36.53C815.235,1373.7128,801.575,1372.7028,788.075,1373.8228 M872.745,1375.5028
		c-7.76,40.28-15.48,80.5699-23.15,120.87c-1.33,8.01-3.6,15.91-4.21,24.02c13.39,0.73,26.73,2.34,40.15,2.36
		c9.13-48.66,18.81-97.22,27.7401-145.92C899.755,1376.6628,886.265,1375.7128,872.745,1375.5028 M957.275,1378.3328
		c-9.47,48.73-18.71,97.5-28.05,146.25c13.62-0.2,27.22,0.9501,40.83,0.42c9.37-48.73,18.83-97.45,27.93-146.22
		C984.415,1378.7928,970.845,1378.4628,957.275,1378.3328 M1042.5649,1378.5728c-0.74,2.05-1.22,4.1801-1.5199,6.3501
		c-8.8201,46.5499-17.9301,93.0599-26.6201,139.6399c13.64,0.2401,27.27-0.74,40.91-1.1899c7.62-37.74,14.5-75.64,21.87-113.4301
		c1.78-10.6,4.41-21.0599,5.78-31.71C1069.505,1378.3728,1056.035,1378.6729,1042.5649,1378.5728 M1126.165,1383.8928
		c-8.4601,45.1699-17.4801,90.25-25.7301,135.46c14.1801-1.9399,28.4301-3.85,42.3-7.45c6.73-35.3,13.51-70.5801,20.26-105.87
		c1.54-9.2101,4.0601-18.28,4.86-27.5701c-13.4299-0.38-26.86-0.6799-40.29-0.88
		C1127.015,1379.6628,1126.505,1381.7528,1126.165,1383.8928 M726.305,1386.2528c-9.03,5.46-15.07,14.73-18.56,24.51
		c-2.8,8.12-4.74,16.5699-5.39,25.14c-1.22,11.5599,0.06,23.73,5.65,34.08c3.47,6.38,8.08,12.33,14.12,16.47
		c2.98-12.77,5.06-25.74,7.65-38.6c4.3199-22.79,8.75-45.5599,13.09-68.35C736.965,1380.6328,731.435,1383.2028,726.305,1386.2528
		 M1211.1849,1385.0328c-7.24,36.2799-13.8799,72.6899-21.0299,108.99c6.26-2.5,11.4299-7.0601,16.59-11.28
		c14.22-12.25,23.38-29.66,26.86-47.99c2.08-11.02,3.75-22.99-0.78-33.62
		C1228.875,1392.4528,1219.835,1387.8029,1211.1849,1385.0328z"/>
	<path fill="#2C2F36" d="M788.075,1373.8228c13.5-1.12,27.16-0.11,40.72-0.3199c-1.76,12.25-4.69,24.3199-6.77,36.53
		c-6.65,34.97-13.45,69.9099-20.08,104.89c-13.28-1.9-26.47-4.67-39.28-8.66C771.115,1462.1128,779.395,1417.9229,788.075,1373.8228
		z"/>
	<path fill="#2C2F36" d="M872.745,1375.5028c13.52,0.21,27.01,1.16,40.53,1.33c-8.9301,48.7001-18.61,97.26-27.7401,145.92
		c-13.42-0.02-26.7599-1.63-40.15-2.36c0.61-8.11,2.88-16.01,4.21-24.02C857.265,1456.0728,864.985,1415.7828,872.745,1375.5028z"/>
	<path fill="#2C2F36" d="M957.275,1378.3328c13.5699,0.13,27.14,0.4601,40.71,0.4501c-9.1,48.77-18.56,97.49-27.93,146.22
		c-13.61,0.53-27.21-0.62-40.83-0.42C938.565,1475.8328,947.805,1427.0627,957.275,1378.3328z"/>
	<path fill="#2C2F36" d="M1042.5649,1378.5728c13.4701,0.1001,26.9401-0.2,40.42-0.34c-1.37,10.65-4,21.11-5.78,31.71
		c-7.37,37.79-14.25,75.6901-21.87,113.4301c-13.64,0.45-27.27,1.4301-40.91,1.1899c8.69-46.58,17.8-93.09,26.6201-139.6399
		C1041.345,1382.7528,1041.825,1380.6228,1042.5649,1378.5728z"/>
	<path fill="#2C2F36" d="M1126.165,1383.8928c0.34-2.14,0.85-4.23,1.3999-6.3101c13.4301,0.2001,26.8601,0.5,40.29,0.88
		c-0.7999,9.29-3.3199,18.36-4.86,27.5701c-6.75,35.2899-13.53,70.5699-20.26,105.87c-13.87,3.6-28.12,5.51-42.3,7.45
		C1108.6849,1474.1428,1117.705,1429.0627,1126.165,1383.8928z"/>
	<path fill="#2C2F36" d="M726.305,1386.2528c5.13-3.05,10.66-5.62,16.56-6.75c-4.34,22.79-8.77,45.5599-13.09,68.35
		c-2.59,12.86-4.67,25.83-7.65,38.6c-6.04-4.14-10.65-10.09-14.12-16.47c-5.59-10.35-6.87-22.52-5.65-34.08
		c0.65-8.5701,2.59-17.02,5.39-25.14C711.235,1400.9828,717.275,1391.7128,726.305,1386.2528z"/>
	<path fill="#2C2F36" d="M1211.1849,1385.0328c8.65,2.77,17.6901,7.4199,21.64,16.1c4.53,10.63,2.86,22.6,0.78,33.62
		c-3.48,18.33-12.64,35.74-26.86,47.99c-5.16,4.22-10.33,8.78-16.59,11.28
		C1197.3051,1457.7228,1203.9449,1421.3127,1211.1849,1385.0328z"/>
	<path fill="#B94F3F" d="M667.415,1405.3828c1.98-3.9501,3.4-8.36,6.5-11.6c-4.3,10.1-8.55,20.35-10.14,31.2899
		c-3.3101,18.15-3.5,37.79,4.67,54.75c7.99,17.6801,24.17,30.16,41.34,38.27c5.42,3.11,11.64,4.25,17.27,6.9
		c8.38,3.3199,17.23,5.26,25.8,8.04c13.02,2.3099,25.84,5.7899,39.04,7.09c8.77,1.5599,17.7,1.88,26.5099,3.29
		c13.92,0.97,27.77,2.8199,41.7401,3.1c13.78,1.38,27.66,1.46,41.5099,1.95c9.13-0.15,18.19,1.24,27.33,1.0601
		c30.31,0.2,60.63,0.27,90.95,0.02c8.81,0.2,17.55-1.3,26.3701-1.1101c35.22-1.5499,70.5199-4.5099,105.0599-11.9099
		c8.34-2.3201,17.09-3.02,25.1901-6.23c17.58-5.29,34.6899-12.6001,49.8899-22.99c7.6101-5.9601,14.7201-12.4801,21.6001-19.25
		c-1.24,3.1799-3.9701,5.36-6.2001,7.8199c-13.5399,14.25-30.64,24.72-48.7999,32.01c-17.9701,7.49-36.9301,12.1899-55.99,15.89
		c-33.3301,6.14-67.1901,8.76-101.02,10.02c-26.64,1.5-53.34,0.7-80.01,0.99c-48.07-0.36-96.2-1.75-144.04-6.6901
		c-23.25-2.58-46.48-5.98-69.12-11.97c-20.65-5.61-41.29-13.36-58.15-26.86c-13.92-11.0801-23.41-27.53-25.68-45.22
		C656.475,1444.2028,660.205,1423.9128,667.415,1405.3828z"/>
	<path fill="#E2925F" d="M572.675,1460.6729c8.9-11.5,24.15-16.4701,38.31-15.75c9.23-0.15,19.64-0.42,27.05,6.0399
		c6.87,6.1,7.72,16.0701,6.4901,24.63c-1.14,8.77-4.4301,17.28-9.44,24.5701c-5.55,7.99-14.28,14.1899-24.17,14.95
		c-14.91,1.03-30.86-5.0599-39.6-17.53c-2.9-4.0499-4.55-8.83-5.58-13.65C565.395,1475.7228,567.035,1466.9427,572.675,1460.6729
		 M599.225,1457.4728c-8.75,1.9501-17.27,7.3101-20.74,15.88c-1.99,6.04-1.13,13.13,2.83,18.22c4.12,5.87,10.87,9.28,17.66,11.02
		c6.62,1.22,14.34,1.92,20-2.48c7.41-5.01,11.07-13.6899,13.32-22.02c1-5.02,1.76-10.41,0.07-15.36
		c-1.99-4.78-7.81-5.91-12.42-6.0599C613.045,1456.7028,606.025,1456.0228,599.225,1457.4728z"/>
	<path fill="#E2925F" d="M1283.145,1452.2428c6.76-7.35,17.58-7.5699,26.85-7.34c10.11-0.5,20.6,1.34,29.23,6.86
		c6.9501,3.84,12.42,10.1799,15.36,17.5499c1.9401,4.63,1.7101,9.79,1.7101,14.7101c-1.1101,6.0399-3.6001,11.9-7.74,16.5
		c-8.7401,10.1-22.4301,15.0399-35.5901,14.71c-9.33-0.2-18.0399-5.23-23.84-12.37c-6.5-7.99-10.5-17.97-11.54-28.2
		C1276.625,1466.9528,1276.875,1457.7928,1283.145,1452.2428 M1296.345,1457.4528c-3.62,0.86-6.84,3.66-7.25,7.51
		c-1.1899,9.48,1.61,19.24,6.65,27.28c3.37,5.46,8.74,10.16,15.29,11.0601c10.47,1.1499,21.8199-2.3101,28.7999-10.4501
		c5.8-6.24,6.65-16.5499,1.66-23.51c-6.04-8.78-17.0601-12.9399-27.45-12.75
		C1308.145,1456.7128,1302.155,1456.1927,1296.345,1457.4528z"/>
	<path fill="#FECF67" d="M599.225,1457.4728c6.8-1.45,13.82-0.77,20.72-0.7999c4.61,0.1499,10.43,1.2799,12.42,6.0599
		c1.69,4.95,0.93,10.34-0.07,15.36c-2.25,8.3301-5.91,17.01-13.32,22.02c-5.66,4.4-13.38,3.7-20,2.48
		c-6.79-1.74-13.54-5.15-17.66-11.02c-3.96-5.09-4.82-12.1799-2.83-18.22C581.955,1464.7828,590.475,1459.4229,599.225,1457.4728z"
		/>
	<path fill="#FECF67" d="M1296.345,1457.4528c5.8101-1.26,11.8-0.74,17.7001-0.86c10.3899-0.1899,21.4099,3.97,27.45,12.75
		c4.99,6.9601,4.14,17.27-1.66,23.51c-6.98,8.14-18.33,11.6-28.7999,10.4501c-6.55-0.9-11.92-5.6001-15.29-11.0601
		c-5.04-8.04-7.84-17.8-6.65-27.28C1289.505,1461.1128,1292.725,1458.3127,1296.345,1457.4528z"/>
	<path fill="#921717" d="M1280.505,1493.6028c-1.98-6.0499-4.01-12.53-2.92-18.9399c1.04,10.23,5.04,20.21,11.54,28.2
		c5.8,7.14,14.51,12.17,23.84,12.37c13.16,0.33,26.85-4.61,35.5901-14.71c4.1399-4.6,6.6299-10.4601,7.74-16.5
		c0.97,7.5-1.9501,14.97-6.4,20.89c-7.3201,9.5599-19.1,14.99-30.92,16.1699c-7.39,0.87-15.2-0.48-21.4399-4.6599
		C1289.335,1511.1528,1283.895,1502.5627,1280.505,1493.6028z"/>
	<path fill="#921717" d="M644.525,1475.5928c0.91,2.73,0.1899,5.6-0.3101,8.35c-2.05,10.8601-6.9399,21.52-15.16,29.0901
		c-6.65,6.1699-16,9.11-24.99,8.11c-13.32-1.09-26.85-7.59-33.9-19.3101c-3.11-5.36-5.14-11.6599-4.43-17.9
		c1.03,4.8201,2.68,9.6001,5.58,13.65c8.74,12.4701,24.69,18.5601,39.6,17.53c9.89-0.76,18.62-6.96,24.17-14.95
		C640.095,1492.8728,643.385,1484.3628,644.525,1475.5928z"/>
	<path fill="#A8AEBE" d="M480.005,1512.8828c2.32-6.66,7.32-13.85,15.06-14.16c5.84,0.71,10.72,4.41,14.55,8.6801
		c8.69,8.99,13.46,20.76,18.95,31.7899c3.83,7.67,5.22,16.2301,8.75,24.01c1.21,2.25,0.61,6.29,3.83,6.74
		c11.71,1.9401,23.43,3.9601,35.2599,5.0701c11.1801,1.75,22.32,3.74,33.57,5.0499c71.41,9.8,143.06,18.1001,214.99,22.8
		c12.63,1.3199,25.3701,1.15,38.01,2.47c13.67,0.3101,27.32,1.3,41.01,1.27c16.29,1.35,32.65,0.87,48.98,1.1
		c29,0.16,58-0.33,86.99-0.23c-8-0.0699-15.99-0.5599-23.98-1.01c14.34,0.14,28.7001,0.25,43.02-0.77
		c6.36-0.26,12.75-0.09,19.09-0.96c33.14-1.49,66.2101-4.36,99.27-7.23c12.71-1.61,25.55-2.15,38.21-4.23
		c4.77-0.91,9.65-0.74,14.4601-1.29c49.47-5.5699,98.7899-12.3,148.03-19.58c9.1899-0.99,18.24-3.3401,27.5399-3.12
		c-2.6899,10.1799-5.0699,20.4199-7.5699,30.64c-124.1,35.6399-252.11,57.9099-381.02,65.4099c-10.04,0.24-20.03,1.4601-30.07,1.42
		c-13.95,0.98-27.95,0.8099-41.92,1.15c-27.36,0.6599-54.72-0.1901-82.07-0.8c-94.43-3.53-188.62-15.01-280.97-35.1799
		c-10.3-2.12-20.47-4.8201-30.78-6.8601c1.35,13.0601,2.85,26.12,3.27,39.26c-0.06,3.99-0.29,8.0701,0.9,11.9601
		c-0.22-0.02-0.66-0.0601-0.88-0.0801c-0.2,11.27-0.97,22.5901-3.28,33.66c-1.9-4.33-2.63-9.01-3.63-13.59
		c-8.95-38.36-19.96-76.48-36.61-112.28c-9.27-19.54-20.13-38.64-34.97-54.52
		C477.285,1523.9229,478.755,1518.4229,480.005,1512.8828z"/>
	<path fill="#A8AEBE" d="M1440.595,1502.4928c3.75-3.21,9.38-4.0601,13.9501-2.25c6.23,3.48,9.26,10.48,11.46,16.9399
		c2.62,9.05,4.17,18.4,4.99,27.79c0.75,4.55-0.03,9.28,1.42,13.73c12.1699-1.6599,24.3099-3.5,36.5299-4.8099
		c12.6101-0.6801,25.02-3.85,37.7101-3.36c-6.52,3.62-13.8401,5.3999-20.7201,8.1899c-18.0599,6.62-36.3199,12.6801-54.5299,18.87
		c-2.01,24.25-4.9601,48.5601-11.24,72.12c-0.9501,3.01-1.5701,6.12-2.13,9.24c-1.02,3.98-2.5701,7.8-3.5701,11.79
		c-4.97,15.95-11.0499,31.6899-19.76,46.01c-0.77-4.29,0.5701-8.51,0.9501-12.75c4.86-40.9401,7.75-82.4,3.7-123.5601
		c-2.37-19.7999-5.7-39.84-13.9-58.1599c0.0901-1.0801,0.2201-2.1901,0.8301-3.0901
		C1430.005,1512.8127,1434.975,1507.2528,1440.595,1502.4928z"/>
	<path fill="#787E8A" d="M1405.595,1569.2828c6.09-15.86,10.7101-32.52,19.86-47c8.2001,18.3199,11.53,38.36,13.9,58.1599
		c4.05,41.16,1.16,82.62-3.7,123.5601c-0.38,4.24-1.7201,8.46-0.9501,12.75c-3.75,6-8.0699,11.86-13.84,16.08
		c-3.91,2.8401-9.3099,4.4701-13.84,2.13c-5.55-2.87-8.3-8.95-10.47-14.47c-5.15-14.74-5.9501-30.52-6.3101-45.98
		c-0.8101,0.12-2.42,0.37-3.23,0.49c1.03-0.59,2.5699-0.74,3.04-1.99c0.59-3.48,0.2599-7.03,0.35-10.52
		c-3.76-1.14-7.55,0.29-11.26,0.8199c-54.8101,7.87-109.88,13.67-165.11,17.5901c-11.3201,1.2-22.74,1.21-34.05,2.52
		c-14.6899,0.3999-29.33,1.7-44,2.46c-12.61,1.1-25.28,0.14-37.91,0.6c6.41,0.37,12.91-0.4399,19.25,0.95
		c-12.76,0.4401-25.5399-0.25-38.2799,0.53c-34.66,1.16-69.35,1.61-104.02,1.8101c-12.01,0.9099-24.02,0.0699-36.03-0.04
		c-27.01-0.3199-54.01-0.96-81.01-1.65c-14.07-0.9199-28.16-0.2799-42.24-0.58c6.64-1.45,13.46-0.63,20.2-1
		c-12.32-0.51-24.66,0.47-36.96-0.61c-37-2.1901-74.03-4.15-110.94-7.61c-13.01-0.99-26.12-0.99-38.95-3.63
		c-11.44-0.61-22.71-2.8401-34.16-3.24c-7.98-0.77-15.95-1.7301-23.9-2.77c-5.79-0.36-11.25-2.66-17.07-2.75
		c-6.54-0.13-12.9399-1.9401-19.5-1.5701c-0.42-13.14-1.92-26.2-3.27-39.26c10.31,2.04,20.48,4.7401,30.78,6.8601
		c92.35,20.1699,186.54,31.6499,280.97,35.1799c27.35,0.61,54.71,1.46,82.07,0.8c13.97-0.3401,27.97-0.17,41.92-1.15
		c10.04,0.04,20.03-1.1801,30.07-1.42c128.91-7.5,256.92-29.77,381.02-65.4099
		C1400.525,1589.7028,1402.905,1579.4628,1405.595,1569.2828z"/>
	<path fill="#797F8B" d="M473.335,1559.8328c0.34-10.15,0.11-20.45,2.66-30.36c14.84,15.88,25.7,34.98,34.97,54.52
		c16.65,35.8,27.66,73.92,36.61,112.28c1,4.58,1.73,9.26,3.63,13.59c-1.89,8.1801-4.23,16.92-10.43,22.96
		c-4.02,4.05-10.83,3.9301-15.42,0.9501c-6.75-4.22-11.38-10.9301-15.56-17.53c-10.02-16.74-16.75-35.29-21.93-54.04
		c-1.06-4.21-1.68-10.62-6.87-11.5699c-14.94-2.97-29.88-6.09-44.57-10.14c-2.76-0.54-5.59-0.26-8.37-0.65
		c-6.76-4.09-14.68-5.21-22.08-7.64c-19.33-5.8999-38.53-12.5399-56.57-21.73c-10.53-5.5699-21.04-11.8099-29.01-20.83
		c-6.21-6.8201-10.52-17-6.73-26.02c2.64-5.85,8.68-9.01,14.43-11.09c3.48,0.46,6.6,2.1499,9.79,3.5399
		c39.44,16.37,79.72,30.6801,120.49,43.39c5.87,1.62,11.59,3.8101,17.58,4.98
		C474.425,1589.6228,472.885,1574.7528,473.335,1559.8328z"/>
	<path fill="#787E8A" d="M1546.655,1550.5328c6.02-1.36,12.23-0.79,18.33-1.52c9.11-1.0601,18.23,0.29,27.33,0.77
		c8.12,1.0299,16.64,2.5299,23.39,7.5c4.8401,3.52,7.25,9.77,6.49,15.6699c-0.85,8.66-6.5299,15.89-12.7799,21.54
		c-9.88,8.6899-21.6001,14.95-33.49,20.4301c-16.13,7.2699-32.91,12.98-49.8601,18c-5.6599,1.7699-11.5199,2.9299-16.96,5.35
		c-9.51,0.3099-18.2,4.64-27.48,6.23c-7.12,1.87-14.45,2.95-21.46,5.21c6.2799-23.5599,9.23-47.87,11.24-72.12
		c18.21-6.1899,36.47-12.25,54.5299-18.87C1532.8149,1555.9327,1540.135,1554.1528,1546.655,1550.5328z"/>
	<path fill="#A8AEBE" d="M328.095,1552.5328c4.66-1.2001,9.37-2.3101,14.17-2.76c25.96-1.25,52-0.0701,77.73,3.46
		c17.84,1.74,35.49,5.16,53.34,6.6c-0.45,14.92,1.09,29.79,2.62,44.61c-5.99-1.1699-11.71-3.36-17.58-4.98
		c-40.77-12.71-81.05-27.02-120.49-43.39C334.695,1554.6827,331.575,1552.9928,328.095,1552.5328z"/>
	<path fill="#E1715F" d="M1481.625,1644.5028c9.28-1.59,17.97-5.92,27.48-6.23c-3.39,2.27-7.1899,3.8199-10.83,5.62
		c-3.5,1.66-7.0901,3.1-10.7001,4.48c-9.74,3.8-19.58,7.39-29.5399,10.58c0.5599-3.12,1.1799-6.23,2.13-9.24
		C1467.175,1647.4528,1474.505,1646.3728,1481.625,1644.5028z"/>
	<path fill="#E1705E" d="M428.055,1639.8428c2.78,0.39,5.61,0.11,8.37,0.65c14.69,4.05,29.63,7.17,44.57,10.14
		c5.19,0.95,5.81,7.36,6.87,11.5699c-6.71-1.47-13.17-3.86-19.79-5.6599c-5.03-1.41-9.92-3.28-14.72-5.3101
		c-4.78-2.15-9.68-4.01-14.46-6.15C435.265,1643.3528,431.505,1641.8928,428.055,1639.8428z"/>
	<path fill="#231F20" d="M1487.575,1648.3728c3.61-1.38,7.2001-2.8199,10.7001-4.48c0.0499,33.35,0,66.71,0.02,100.0599
		c-0.1101,9.0801,0.6399,18.3101-1.7101,27.2001c-5.2899,23.74-24.95,43.4099-48.65,48.85c-9.45,2.49-19.2999,1.63-28.95,1.78
		c-12.65,0-25.3,0.01-37.9399,0.01c-15.41,0.0199-30.7301-5.67-42.42-15.7101c-14.27-12.0499-22.91-30.4399-23.1-49.11
		c-0.15-24.59,0.09-49.1799-0.11-73.77c23.9299-2.0599,47.85-4.52,71.6-8.2c0.8099-0.12,2.4199-0.37,3.23-0.49
		c0.36,15.46,1.16,31.24,6.3101,45.98c2.1699,5.52,4.9199,11.6,10.47,14.47c4.53,2.3401,9.9299,0.7101,13.84-2.13
		c5.77-4.22,10.09-10.08,13.84-16.08c8.7101-14.3201,14.79-30.0601,19.76-46.01c0,6.87-1.4399,13.62-2.28,20.42
		c-5.46,35.4199-14.6299,70.51-30.0399,102.97c-2.3301,5.04-5.15,9.84-7.38,14.9299c11.9-0.1399,24.2,1.39,35.71-2.49
		c15.63-5,28.54-17.73,33.75-33.2899c2.17-6.2001,2.91-12.8101,2.9301-19.3501c-0.02-31.6599-0.01-63.3199-0.01-94.98
		C1487.145,1655.4128,1486.845,1651.8428,1487.575,1648.3728z"/>
	<path fill="#231F20" d="M438.895,1645.0828c4.78,2.14,9.68,4,14.46,6.15c0.1,35.5701,0,71.16,0.05,106.74
		c0.36,18.22,11.1,35.76,27.1,44.46c9.85,5.6901,21.46,7.4301,32.69,6.63c-26.4-46.61-39.83-99.5-45.12-152.5199
		c6.62,1.7999,13.08,4.1899,19.79,5.6599c5.18,18.75,11.91,37.3,21.93,54.04c4.18,6.6,8.81,13.3101,15.56,17.53
		c4.59,2.98,11.4,3.1,15.42-0.9501c6.2-6.0399,8.54-14.7799,10.43-22.96c2.31-11.0699,3.08-22.39,3.28-33.66
		c0.22,0.02,0.66,0.0601,0.88,0.0801c22.06,2.84,44.17,5.35,66.35,7.0599c-0.05,18.22-0.0099,36.4401-0.02,54.66
		c-0.34,10.99,1.04,22.1899-1.68,32.98c-5.14,23.2-23.99,42.61-46.97,48.59c-11.07,3.15-22.65,2.01-34,2.2201
		c-13.03-0.1001-26.07,0.1899-39.0999-0.16c-26.23-1.5-50.21-20.51-57.9-45.59c-3.68-10.6101-3.13-21.9501-3.12-32.99
		C438.905,1710.3928,438.965,1677.7328,438.895,1645.0828z"/>
	<path fill="#7995AA" d="M1458.035,1658.9528c9.96-3.1899,19.7999-6.7799,29.5399-10.58c-0.73,3.47-0.4299,7.04-0.4299,10.58
		c0,31.66-0.01,63.3201,0.01,94.98c-0.02,6.54-0.76,13.15-2.9301,19.3501c-5.21,15.5599-18.12,28.2899-33.75,33.2899
		c-11.51,3.88-23.8099,2.3501-35.71,2.49c2.23-5.09,5.0499-9.8899,7.38-14.9299c15.41-32.46,24.58-67.55,30.0399-102.97
		c0.8401-6.8,2.28-13.55,2.28-20.42C1455.465,1666.7528,1457.015,1662.9327,1458.035,1658.9528z"/>
	<path fill="#7995AA" d="M453.355,1651.2328c4.8,2.03,9.69,3.9,14.72,5.3101c5.29,53.0199,18.72,105.9099,45.12,152.5199
		c-11.23,0.8-22.84-0.9399-32.69-6.63c-16-8.7-26.74-26.24-27.1-44.46C453.355,1722.3928,453.455,1686.8029,453.355,1651.2328z"/>
	<path fill="#E2705E" d="M1379.145,1663.3127c3.71-0.5299,7.5-1.96,11.26-0.8199c-0.0901,3.49,0.24,7.04-0.35,10.52
		c-0.4701,1.25-2.01,1.4-3.04,1.99c-23.75,3.6799-47.67,6.14-71.6,8.2c-9.17,0.36-18.29,1.41-27.4601,1.5701
		c-2.6599,0-5.35-0.41-7.9399,0.3199c-0.4301,0.09-1.3101,0.25-1.74,0.34c-11.4401,0.3101-22.85,1.2001-34.3,1.1201
		c-9.3199,0.48-18.63-0.52-27.9399,0c4.7799-0.03,9.5599-0.04,14.33,0.45c-19,0.85-38.04,0.5599-57.0599,0.75
		c-18.66-0.1901-37.3501,0.36-55.9801-0.3201c-6.34-1.3899-12.84-0.58-19.25-0.95c12.63-0.46,25.3,0.5,37.91-0.6
		c14.67-0.76,29.3101-2.0601,44-2.46c11.3101-1.3101,22.73-1.3201,34.05-2.52
		C1269.265,1676.9828,1324.335,1671.1827,1379.145,1663.3127z"/>
	<path fill="#E2705E" d="M554.465,1664.3228c6.5601-0.37,12.96,1.4401,19.5,1.5701c5.82,0.09,11.28,2.39,17.07,2.75
		c7.95,1.0399,15.92,2,23.9,2.77c11.45,0.3999,22.72,2.63,34.16,3.24c12.83,2.64,25.94,2.64,38.95,3.63
		c36.91,3.46,73.94,5.4199,110.94,7.61c12.3,1.08,24.64,0.1,36.96,0.61c-6.74,0.37-13.56-0.45-20.2,1
		c-22.48,0.73-45.04-0.27-67.52,0.52c-9.41-0.8101-18.88-0.22-28.31-0.55c-18.45-0.22-36.89-0.95-55.31-1.8099
		c-6.65,0.3099-13.18-1.3501-19.82-1.0801c-2.89,0.01-5.77-0.08-8.65-0.22c-4.8-0.4301-9.61-0.83-14.42-1.02
		c-22.18-1.71-44.29-4.22-66.35-7.0599C554.175,1672.3928,554.405,1668.3127,554.465,1664.3228z"/>
	<path fill="#231F20" d="M636.135,1684.3628c2.88,0.14,5.76,0.23,8.65,0.22c-0.19,8.75-0.06,18.15,4.95,25.73
		c6.43,10.9801,19.58,16.6101,32.02,15.3601c-7.19-12.64-13.01-26.0801-17.15-40.01c18.42,0.86,36.86,1.59,55.31,1.8099
		c9.43,0.3301,18.9-0.26,28.31,0.55c0.24,8.0499-0.61,16.37-4.52,23.5699c-6.58,13.1801-20.92,21.9601-35.65,21.89
		c-11.33-0.0699-22.66,0.11-33.98-0.0699c-16.85-0.66-32.26-13.17-36.56-29.4401
		C635.625,1697.6028,636.295,1690.8928,636.135,1684.3628z"/>
	<path fill="#7995AA" d="M644.785,1684.5828c6.64-0.27,13.17,1.39,19.82,1.0801c4.14,13.9299,9.96,27.37,17.15,40.01
		c-12.44,1.25-25.59-4.38-32.02-15.3601C644.725,1702.7328,644.595,1693.3328,644.785,1684.5828z"/>
	<path fill="#231F20" d="M1278.275,1685.4327c0.4299-0.09,1.3099-0.25,1.74-0.34c1.73-0.36,3.51-0.33,5.29-0.35
		c-0.03,6.45,0.4399,13.0601-1.4801,19.33c-4.2,15.6901-18.76,27.9401-34.98,29.2201c-7.9399,0.4299-15.89,0.0599-23.83,0.1899
		c-7.64-0.16-15.49,0.71-22.9-1.65c-13.04-3.73-23.7-14.58-27.34-27.63c-1.6-5.34-1.61-10.95-1.47-16.45
		c19.0199-0.1901,38.0599,0.1,57.0599-0.75c6.4401-0.05,12.89-0.26,19.34-0.4301c-3.62,13.6001-9.1799,26.6001-15.6599,39.0701
		c8.0499-0.14,16.51,1.0399,24.12-2.3c9.8199-3.86,17.36-12.9199,19.51-23.24
		C1278.735,1695.2828,1278.355,1690.3127,1278.275,1685.4327z"/>
	<path fill="#7995AA" d="M1216.035,1686.5529c9.3099-0.52,18.62,0.48,27.9399,0c11.4501,0.08,22.86-0.8101,34.3-1.1201
		c0.08,4.88,0.46,9.8501-0.6,14.67c-2.15,10.3201-9.6901,19.38-19.51,23.24c-7.61,3.34-16.0701,2.16-24.12,2.3
		c6.48-12.47,12.0399-25.47,15.6599-39.0701c-6.45,0.17-12.8999,0.38-19.34,0.4301
		C1225.595,1686.5128,1220.8149,1686.5228,1216.035,1686.5529z"/>
</g>
</svg>
