<svg xmlns:xlink="http://www.w3.org/1999/xlink" width="425" xmlns="http://www.w3.org/2000/svg" height="516" id="screenshot-1fa9ac92-d22e-8022-8001-98f852a80219" viewBox="-0 -0 425 516" style="-webkit-print-color-adjust: exact;" fill="none" version="1.1"><g id="shape-1fa9ac92-d22e-8022-8001-98f852a80219"><defs><clipPath id="frame-clip-1fa9ac92-d22e-8022-8001-98f852a80219-6e18cd68-5610-8001-8001-98f976b11610" class="frame-clip"><rect rx="0" ry="0" x="0" y="0" width="424.9999989030784" height="515.9999991331518" transform="matrix(1,0,0,1,-0.000001,0)" style="fill: rgb(255, 255, 255); fill-opacity: 0;"/></clipPath></defs><g clip-path="url(#frame-clip-1fa9ac92-d22e-8022-8001-98f852a80219-6e18cd68-5610-8001-8001-98f976b11610)"><clipPath id="frame-clip-1fa9ac92-d22e-8022-8001-98f852a80219-6e18cd68-5610-8001-8001-98f976b11610" class="frame-clip"><rect rx="0" ry="0" x="0" y="0" width="424.9999989030784" height="515.9999991331518" transform="matrix(1,0,0,1,-0.000001,0)" style="fill: rgb(255, 255, 255); fill-opacity: 0;"/></clipPath><g id="fills-1fa9ac92-d22e-8022-8001-98f852a80219"><rect width="424.9999989030784" height="515.9999991331518" class="frame-background" x="0" transform="matrix(1,0,0,1,-0.000001,0)" style="fill: rgb(255, 255, 255); fill-opacity: 0;" ry="0" rx="0" y="0"/></g><g class="frame-children"><g id="shape-8706721f-ccea-8070-8001-98ebbc64cf18" rx="0" ry="0"><g id="shape-8706721f-ccea-8070-8001-98ebbc64cf19"><g id="fills-8706721f-ccea-8070-8001-98ebbc64cf19"><path rx="0" ry="0" d="M32,62C32,50.962,40.962,42,52,42L299,32C310.038,32,319,40.962,319,52L291,468C291,479.038,282.038,488,271,488L60,488C48.962,488,40,479.038,40,468L32,62ZM60,83L68,463C68,468.519,72.481,473,78,473L253,473C258.519,473,263,468.519,263,463L291,73C291,67.481,286.519,63,281,63L93.994,71.863L70,73C64.481,73,60,77.481,60,83Z" style="fill: rgb(75, 92, 144); fill-opacity: 1;"/></g><g id="strokes-8706721f-ccea-8070-8001-98ebbc64cf19"><g class="stroke-shape"><path rx="0" ry="0" d="M32,62C32,50.962,40.962,42,52,42L299,32C310.038,32,319,40.962,319,52L291,468C291,479.038,282.038,488,271,488L60,488C48.962,488,40,479.038,40,468L32,62ZM60,83L68,463C68,468.519,72.481,473,78,473L253,473C258.519,473,263,468.519,263,463L291,73C291,67.481,286.519,63,281,63L93.994,71.863L70,73C64.481,73,60,77.481,60,83Z" style="fill: none; stroke-width: 3; stroke: rgb(111, 79, 24); stroke-opacity: 1;"/></g></g></g><g id="shape-8706721f-ccea-8070-8001-98ebbc64cf1a" rx="0" ry="0"><g id="shape-8706721f-ccea-8070-8001-98ebbc64cf1b"><g id="fills-8706721f-ccea-8070-8001-98ebbc64cf1b"><path rx="0" ry="0" d="M410.996,98.312L367.173,475.813C366.612,481.303,363.243,485.463,359.654,485.096L245.852,473.47C242.263,473.104,239.805,468.348,240.366,462.858L261.794,73.017C262.355,67.526,265.724,63.366,269.314,63.733L405.509,87.699C409.098,88.066,411.557,92.821,410.996,98.312Z" style="fill: rgb(198, 151, 68); fill-opacity: 1;"/></g><g id="strokes-8706721f-ccea-8070-8001-98ebbc64cf1b"><g class="stroke-shape"><path rx="0" ry="0" d="M410.996,98.312L367.173,475.813C366.612,481.303,363.243,485.463,359.654,485.096L245.852,473.47C242.263,473.104,239.805,468.348,240.366,462.858L261.794,73.017C262.355,67.526,265.724,63.366,269.314,63.733L405.509,87.699C409.098,88.066,411.557,92.821,410.996,98.312Z" style="fill: none; stroke-width: 3; stroke: rgb(111, 79, 24); stroke-opacity: 1;"/></g></g></g><g id="shape-8706721f-ccea-8070-8001-98ebbc64cf1d"><g id="fills-8706721f-ccea-8070-8001-98ebbc64cf1d"><rect rx="9.999999978006258" ry="9.999999978006258" x="351.210525800465" y="280.65440968304415" transform="matrix(-0.994822,-0.101633,-0.101633,0.994822,758.070118,38.622561)" width="27.99999994519999" height="19.999999956012516" style="fill: rgb(111, 79, 24); fill-opacity: 1;"/></g></g><g id="shape-8706721f-ccea-8070-8001-98ebbc64cf1c"><g id="fills-8706721f-ccea-8070-8001-98ebbc64cf1c"><path rx="0" ry="0" d="M302.076,475.299L331.086,87.698M282.609,473.31L310.024,82.169M361.775,481.398L361.775,481.398ZL399.59,101.197M342.308,479.41L375.792,97.545M322.841,477.421L353.687,92.163M263.141,471.322L290.068,78.496M243.674,469.333L271.179,73.025" style="fill: rgb(168, 179, 203); fill-opacity: 0;"/></g><g id="strokes-8706721f-ccea-8070-8001-98ebbc64cf1c"><g class="stroke-shape"><path rx="0" ry="0" d="M302.076,475.299L331.086,87.698M282.609,473.31L310.024,82.169M361.775,481.398L361.775,481.398ZL399.59,101.197M342.308,479.41L375.792,97.545M322.841,477.421L353.687,92.163M263.141,471.322L290.068,78.496M243.674,469.333L271.179,73.025" style="fill: none; stroke-width: 2; stroke: rgb(111, 79, 24); stroke-opacity: 1;"/></g></g></g></g></g></g></g></g></svg>