<svg xmlns:xlink="http://www.w3.org/1999/xlink" width="425" xmlns="http://www.w3.org/2000/svg" height="516" id="screenshot-1fa9ac92-d22e-8022-8001-98f824c124b7" viewBox="-0 -0 425 516" style="-webkit-print-color-adjust: exact;" fill="none" version="1.1"><g id="shape-1fa9ac92-d22e-8022-8001-98f824c124b7"><defs><clipPath id="frame-clip-1fa9ac92-d22e-8022-8001-98f824c124b7-6e18cd68-5610-8001-8001-98f976aabd13" class="frame-clip"><rect rx="0" ry="0" x="0" y="0" width="424.9999999999998" height="515.9999999999999" transform="matrix(1,0,0,1,0.000001,-0.000003)" style="fill: rgb(255, 255, 255); fill-opacity: 0;"/></clipPath></defs><g clip-path="url(#frame-clip-1fa9ac92-d22e-8022-8001-98f824c124b7-6e18cd68-5610-8001-8001-98f976aabd13)"><clipPath id="frame-clip-1fa9ac92-d22e-8022-8001-98f824c124b7-6e18cd68-5610-8001-8001-98f976aabd13" class="frame-clip"><rect rx="0" ry="0" x="0" y="0" width="424.9999999999998" height="515.9999999999999" transform="matrix(1,0,0,1,0.000001,-0.000003)" style="fill: rgb(255, 255, 255); fill-opacity: 0;"/></clipPath><g id="fills-1fa9ac92-d22e-8022-8001-98f824c124b7"><rect width="424.9999999999998" height="515.9999999999999" class="frame-background" x="0" transform="matrix(1,0,0,1,0.000001,-0.000003)" style="fill: rgb(255, 255, 255); fill-opacity: 0;" ry="0" rx="0" y="0"/></g><g class="frame-children"><g id="shape-8706721f-ccea-8070-8001-98ebb512cc74" rx="0" ry="0"><g id="shape-8706721f-ccea-8070-8001-98ece16cefda"><defs><linearGradient id="fill-color-gradient_6e18cd68-5610-8001-8001-98f976ac3f52_0" x1="0.49663135165494837" y1="0.6154203627035709" x2="0.5" y2="1" gradientTransform="matrix(1,0,0,1,0,0)"><stop offset="0" stop-color="#b3b3b3" stop-opacity="0"/><stop offset="1" stop-color="#000000" stop-opacity="0.99375"/></linearGradient><pattern patternUnits="userSpaceOnUse" x="32.00000125169743" y="33.999999080975385" height="456.0000013038516" width="287" data-loading="false" patternTransform="matrix(1,0,0,1,0,0)" id="fill-0-6e18cd68-5610-8001-8001-98f976ac3f52"><g><rect width="287" height="456.0000013038516" style="fill: url(&quot;#fill-color-gradient_6e18cd68-5610-8001-8001-98f976ac3f52_0&quot;);"/></g></pattern></defs><g id="fills-8706721f-ccea-8070-8001-98ece16cefda"><path rx="0" ry="0" d="M32,64C32,52.962,40.962,44,52,44L299,34C310.038,34,319,42.962,319,54L291,470C291,481.038,282.038,490,271,490L60,490C48.962,490,40,481.038,40,470L32,64Z" fill="url(#fill-0-6e18cd68-5610-8001-8001-98f976ac3f52)"/></g><g id="strokes-8706721f-ccea-8070-8001-98ece16cefda"><g class="stroke-shape"><path rx="0" ry="0" d="M32,64C32,52.962,40.962,44,52,44L299,34C310.038,34,319,42.962,319,54L291,470C291,481.038,282.038,490,271,490L60,490C48.962,490,40,481.038,40,470L32,64Z" style="fill: none; stroke-width: 3; stroke: rgb(111, 79, 24); stroke-opacity: 1;"/></g></g></g><g id="shape-8706721f-ccea-8070-8001-98e65a4652bb"><g id="fills-8706721f-ccea-8070-8001-98e65a4652bb"><path rx="0" ry="0" d="M32,65C32,53.962,40.962,45,52,45L299,35C310.038,35,319,43.962,319,55L291,471C291,482.038,282.038,491,271,491L60,491C48.962,491,40,482.038,40,471L32,65ZM60,86L68,466C68,471.519,72.481,476,78,476L253,476C258.519,476,263,471.519,263,466L291,76C291,70.481,286.519,66,281,66L93.993,74.863L70,76C64.481,76,60,80.481,60,86Z" style="fill: rgb(75, 92, 144); fill-opacity: 1;"/></g><g id="strokes-8706721f-ccea-8070-8001-98e65a4652bb"><g class="stroke-shape"><path rx="0" ry="0" d="M32,65C32,53.962,40.962,45,52,45L299,35C310.038,35,319,43.962,319,55L291,471C291,482.038,282.038,491,271,491L60,491C48.962,491,40,482.038,40,471L32,65ZM60,86L68,466C68,471.519,72.481,476,78,476L253,476C258.519,476,263,471.519,263,466L291,76C291,70.481,286.519,66,281,66L93.993,74.863L70,76C64.481,76,60,80.481,60,86Z" style="fill: none; stroke-width: 3; stroke: rgb(111, 79, 24); stroke-opacity: 1;"/></g></g></g><g id="shape-8706721f-ccea-8070-8001-98eb7a4fe4b4" rx="0" ry="0"><g id="shape-8706721f-ccea-8070-8001-98ea0b5f5987"><g id="fills-8706721f-ccea-8070-8001-98ea0b5f5987"><path rx="0" ry="0" d="M55,80.439L63.173,468.78C63.173,474.421,67.751,479,73.39,479L252.177,479C257.816,479,262.394,474.421,262.394,468.78L291,70.22C291,64.579,286.422,60,280.784,60L65.216,70.22C59.578,70.22,55,74.799,55,80.439Z" style="fill: rgb(198, 151, 68); fill-opacity: 1;"/></g><g id="strokes-8706721f-ccea-8070-8001-98ea0b5f5987"><g class="stroke-shape"><path rx="0" ry="0" d="M55,80.439L63.173,468.78C63.173,474.421,67.751,479,73.39,479L252.177,479C257.816,479,262.394,474.421,262.394,468.78L291,70.22C291,64.579,286.422,60,280.784,60L65.216,70.22C59.578,70.22,55,74.799,55,80.439Z" style="fill: none; stroke-width: 3; stroke: rgb(111, 79, 24); stroke-opacity: 1;"/></g></g></g><g id="shape-8706721f-ccea-8070-8001-98ea366a084b"><g id="fills-8706721f-ccea-8070-8001-98ea366a084b"><path rx="0" ry="0" d="M164.094,474.412L180.558,77.528M194.681,474.412L214.188,74.096M70.295,474.412L70.295,474.412ZL71.894,84.134M100.882,474.412L109.479,82.894M131.469,474.412L144.706,79.719M225.268,474.412L245.802,72.436M255.855,474.412L276.042,68.837" style="fill: rgb(168, 179, 203); fill-opacity: 0;"/></g><g id="strokes-8706721f-ccea-8070-8001-98ea366a084b"><g class="stroke-shape"><path rx="0" ry="0" d="M164.094,474.412L180.558,77.528M194.681,474.412L214.188,74.096M70.295,474.412L70.295,474.412ZL71.894,84.134M100.882,474.412L109.479,82.894M131.469,474.412L144.706,79.719M225.268,474.412L245.802,72.436M255.855,474.412L276.042,68.837" style="fill: none; stroke-width: 2; stroke: rgb(111, 79, 24); stroke-opacity: 1;"/></g></g></g><g id="shape-8706721f-ccea-8070-8001-98e7b7db92b8"><g id="fills-8706721f-ccea-8070-8001-98e7b7db92b8"><rect rx="10.500000000000114" ry="10.500000000000114" x="72.99999842792738" y="269.9999990809754" transform="matrix(1,0,0,1,0,0)" width="44" height="21.000000000000227" style="fill: rgb(111, 79, 24); fill-opacity: 1;"/></g></g></g></g></g></g></g></svg>